G75*
%MOIN*%
%OFA0B0*%
%FSLAX25Y25*%
%IPPOS*%
%LPD*%
%AMOC8*
5,1,8,0,0,1.08239X$1,22.5*
%
%ADD10C,0.04800*%
%ADD11C,0.03543*%
%ADD12C,0.06024*%
%ADD13C,0.03600*%
%ADD14C,0.00800*%
%ADD15C,0.09450*%
D10*
X0085374Y0054224D03*
X0093316Y0085760D03*
X0103316Y0085760D03*
X0122319Y0084681D03*
X0132319Y0084681D03*
X0122319Y0094681D03*
X0125374Y0054224D03*
D11*
X0116181Y0040035D03*
X0116181Y0010035D03*
X0146181Y0010035D03*
X0166181Y0010035D03*
X0166181Y0040035D03*
D12*
X0170834Y0115856D03*
X0160834Y0115856D03*
X0150834Y0115856D03*
X0180834Y0115856D03*
X0190834Y0115856D03*
D13*
X0125134Y0132756D03*
X0087134Y0132256D03*
X0078634Y0132256D03*
X0068634Y0122256D03*
X0055134Y0132756D03*
X0038382Y0119366D03*
X0030508Y0107555D03*
X0042134Y0101256D03*
X0049634Y0101256D03*
X0055834Y0106356D03*
X0050193Y0107555D03*
X0068134Y0109756D03*
X0080634Y0109756D03*
X0096134Y0103156D03*
X0081634Y0097256D03*
X0069134Y0097256D03*
X0058634Y0086256D03*
X0071634Y0083756D03*
X0078434Y0082956D03*
X0092234Y0075056D03*
X0100234Y0075356D03*
X0078234Y0064956D03*
X0063134Y0075756D03*
X0046256Y0075622D03*
X0046256Y0063311D03*
X0055134Y0059756D03*
X0046256Y0051000D03*
X0111434Y0096056D03*
D14*
X0043634Y0089839D02*
X0043634Y0044563D01*
X0091532Y0044563D01*
X0091532Y0072122D01*
X0126571Y0072122D01*
X0126571Y0093776D01*
X0197831Y0093776D01*
X0197831Y0137083D01*
X0024603Y0137083D01*
X0024603Y0099681D01*
X0040315Y0099681D01*
X0040099Y0099896D01*
X0039734Y0100779D01*
X0039734Y0101733D01*
X0040099Y0102615D01*
X0040775Y0103291D01*
X0041657Y0103656D01*
X0042611Y0103656D01*
X0043494Y0103291D01*
X0044169Y0102615D01*
X0044534Y0101733D01*
X0044534Y0100779D01*
X0044169Y0099896D01*
X0043953Y0099681D01*
X0047815Y0099681D01*
X0047599Y0099896D01*
X0047234Y0100779D01*
X0047234Y0101733D01*
X0047599Y0102615D01*
X0048275Y0103291D01*
X0049157Y0103656D01*
X0050111Y0103656D01*
X0050994Y0103291D01*
X0051669Y0102615D01*
X0052034Y0101733D01*
X0052034Y0100779D01*
X0051669Y0099896D01*
X0051453Y0099681D01*
X0065941Y0099681D01*
X0065941Y0089839D01*
X0043634Y0089839D01*
X0043634Y0089092D02*
X0126571Y0089092D01*
X0126571Y0088294D02*
X0105025Y0088294D01*
X0105015Y0088303D02*
X0103913Y0088760D01*
X0102719Y0088760D01*
X0101617Y0088303D01*
X0100773Y0087459D01*
X0100316Y0086357D01*
X0100316Y0085163D01*
X0100773Y0084060D01*
X0101617Y0083217D01*
X0102719Y0082760D01*
X0103913Y0082760D01*
X0105015Y0083217D01*
X0105859Y0084060D01*
X0106316Y0085163D01*
X0106316Y0086357D01*
X0105859Y0087459D01*
X0105015Y0088303D01*
X0105823Y0087495D02*
X0121273Y0087495D01*
X0121722Y0087681D02*
X0120620Y0087224D01*
X0119776Y0086380D01*
X0119319Y0085278D01*
X0119319Y0084084D01*
X0119776Y0082982D01*
X0120620Y0082138D01*
X0121722Y0081681D01*
X0122916Y0081681D01*
X0124018Y0082138D01*
X0124862Y0082982D01*
X0125319Y0084084D01*
X0125319Y0085278D01*
X0124862Y0086380D01*
X0124018Y0087224D01*
X0122916Y0087681D01*
X0121722Y0087681D01*
X0123365Y0087495D02*
X0126571Y0087495D01*
X0126571Y0086697D02*
X0124546Y0086697D01*
X0125062Y0085898D02*
X0126571Y0085898D01*
X0126571Y0085100D02*
X0125319Y0085100D01*
X0125319Y0084301D02*
X0126571Y0084301D01*
X0126571Y0083503D02*
X0125078Y0083503D01*
X0124585Y0082704D02*
X0126571Y0082704D01*
X0126571Y0081906D02*
X0123458Y0081906D01*
X0121180Y0081906D02*
X0043634Y0081906D01*
X0043634Y0082704D02*
X0120053Y0082704D01*
X0119560Y0083503D02*
X0105301Y0083503D01*
X0105959Y0084301D02*
X0119319Y0084301D01*
X0119319Y0085100D02*
X0106290Y0085100D01*
X0106316Y0085898D02*
X0119576Y0085898D01*
X0120092Y0086697D02*
X0106175Y0086697D01*
X0101607Y0088294D02*
X0095025Y0088294D01*
X0095015Y0088303D02*
X0093913Y0088760D01*
X0092719Y0088760D01*
X0091617Y0088303D01*
X0090773Y0087459D01*
X0090316Y0086357D01*
X0090316Y0085163D01*
X0090773Y0084060D01*
X0091617Y0083217D01*
X0092719Y0082760D01*
X0093913Y0082760D01*
X0095015Y0083217D01*
X0095859Y0084060D01*
X0096316Y0085163D01*
X0096316Y0086357D01*
X0095859Y0087459D01*
X0095015Y0088303D01*
X0095823Y0087495D02*
X0100809Y0087495D01*
X0100457Y0086697D02*
X0096175Y0086697D01*
X0096316Y0085898D02*
X0100316Y0085898D01*
X0100342Y0085100D02*
X0096290Y0085100D01*
X0095959Y0084301D02*
X0100673Y0084301D01*
X0101331Y0083503D02*
X0095301Y0083503D01*
X0091331Y0083503D02*
X0043634Y0083503D01*
X0043634Y0084301D02*
X0090673Y0084301D01*
X0090342Y0085100D02*
X0043634Y0085100D01*
X0043634Y0085898D02*
X0090316Y0085898D01*
X0090457Y0086697D02*
X0043634Y0086697D01*
X0043634Y0087495D02*
X0090809Y0087495D01*
X0091607Y0088294D02*
X0043634Y0088294D01*
X0043634Y0081107D02*
X0126571Y0081107D01*
X0126571Y0080309D02*
X0043634Y0080309D01*
X0043634Y0079510D02*
X0126571Y0079510D01*
X0126571Y0078712D02*
X0043634Y0078712D01*
X0043634Y0077913D02*
X0045515Y0077913D01*
X0045779Y0078022D02*
X0044897Y0077657D01*
X0044221Y0076982D01*
X0043856Y0076099D01*
X0043856Y0075145D01*
X0044221Y0074263D01*
X0044897Y0073587D01*
X0045779Y0073222D01*
X0046733Y0073222D01*
X0047616Y0073587D01*
X0048291Y0074263D01*
X0048656Y0075145D01*
X0048656Y0076099D01*
X0048291Y0076982D01*
X0047616Y0077657D01*
X0046733Y0078022D01*
X0045779Y0078022D01*
X0046997Y0077913D02*
X0062070Y0077913D01*
X0061775Y0077791D02*
X0061099Y0077115D01*
X0061099Y0077114D02*
X0048158Y0077114D01*
X0048566Y0076316D02*
X0060768Y0076316D01*
X0060734Y0076233D02*
X0060734Y0075279D01*
X0061099Y0074396D01*
X0061775Y0073721D01*
X0062657Y0073356D01*
X0063611Y0073356D01*
X0064494Y0073721D01*
X0065169Y0074396D01*
X0065534Y0075279D01*
X0065534Y0076233D01*
X0065169Y0077115D01*
X0065169Y0077114D02*
X0090932Y0077114D01*
X0090875Y0077091D02*
X0090199Y0076415D01*
X0089834Y0075533D01*
X0089834Y0074579D01*
X0090199Y0073696D01*
X0090875Y0073021D01*
X0091757Y0072656D01*
X0092711Y0072656D01*
X0093594Y0073021D01*
X0094269Y0073696D01*
X0094634Y0074579D01*
X0094634Y0075533D01*
X0094269Y0076415D01*
X0093594Y0077091D01*
X0092711Y0077456D01*
X0091757Y0077456D01*
X0090875Y0077091D01*
X0090158Y0076316D02*
X0065500Y0076316D01*
X0065534Y0075517D02*
X0089834Y0075517D01*
X0089834Y0074719D02*
X0065302Y0074719D01*
X0064693Y0073920D02*
X0090107Y0073920D01*
X0090774Y0073122D02*
X0043634Y0073122D01*
X0043634Y0073920D02*
X0044564Y0073920D01*
X0044032Y0074719D02*
X0043634Y0074719D01*
X0043634Y0075517D02*
X0043856Y0075517D01*
X0043946Y0076316D02*
X0043634Y0076316D01*
X0043634Y0077114D02*
X0044354Y0077114D01*
X0048656Y0075517D02*
X0060734Y0075517D01*
X0060734Y0076233D02*
X0061099Y0077115D01*
X0061775Y0077791D02*
X0062657Y0078156D01*
X0063611Y0078156D01*
X0064494Y0077791D01*
X0065169Y0077115D01*
X0064198Y0077913D02*
X0126571Y0077913D01*
X0126571Y0077114D02*
X0101870Y0077114D01*
X0101594Y0077391D02*
X0100711Y0077756D01*
X0099757Y0077756D01*
X0098875Y0077391D01*
X0098199Y0076715D01*
X0097834Y0075833D01*
X0097834Y0074879D01*
X0098199Y0073996D01*
X0098875Y0073321D01*
X0099757Y0072956D01*
X0100711Y0072956D01*
X0101594Y0073321D01*
X0102269Y0073996D01*
X0102634Y0074879D01*
X0102634Y0075833D01*
X0102269Y0076715D01*
X0101594Y0077391D01*
X0102434Y0076316D02*
X0126571Y0076316D01*
X0126571Y0075517D02*
X0102634Y0075517D01*
X0102568Y0074719D02*
X0126571Y0074719D01*
X0126571Y0073920D02*
X0102193Y0073920D01*
X0101112Y0073122D02*
X0126571Y0073122D01*
X0126571Y0072323D02*
X0063941Y0072323D01*
X0064060Y0072205D02*
X0063386Y0072878D01*
X0054559Y0072878D01*
X0053886Y0072205D01*
X0053886Y0063378D01*
X0054559Y0062704D01*
X0055512Y0062704D01*
X0063386Y0062704D01*
X0064060Y0063378D01*
X0064060Y0072205D01*
X0064060Y0071525D02*
X0091532Y0071525D01*
X0091532Y0070726D02*
X0064060Y0070726D01*
X0064060Y0069928D02*
X0091532Y0069928D01*
X0091532Y0069129D02*
X0064060Y0069129D01*
X0064060Y0068331D02*
X0091532Y0068331D01*
X0091532Y0067532D02*
X0064060Y0067532D01*
X0064060Y0066734D02*
X0076618Y0066734D01*
X0076875Y0066991D02*
X0076199Y0066315D01*
X0075834Y0065433D01*
X0075834Y0064479D01*
X0076199Y0063596D01*
X0076875Y0062921D01*
X0077757Y0062556D01*
X0078711Y0062556D01*
X0079594Y0062921D01*
X0080269Y0063596D01*
X0080634Y0064479D01*
X0080634Y0065433D01*
X0080269Y0066315D01*
X0079594Y0066991D01*
X0078711Y0067356D01*
X0077757Y0067356D01*
X0076875Y0066991D01*
X0076042Y0065935D02*
X0064060Y0065935D01*
X0064060Y0065137D02*
X0075834Y0065137D01*
X0075892Y0064338D02*
X0064060Y0064338D01*
X0064060Y0063540D02*
X0076256Y0063540D01*
X0077309Y0062741D02*
X0063423Y0062741D01*
X0057487Y0060346D02*
X0091532Y0060346D01*
X0091532Y0061144D02*
X0057140Y0061144D01*
X0057169Y0061115D02*
X0056494Y0061791D01*
X0055611Y0062156D01*
X0054657Y0062156D01*
X0053775Y0061791D01*
X0053099Y0061115D01*
X0052734Y0060233D01*
X0052734Y0059279D01*
X0053099Y0058396D01*
X0053775Y0057721D01*
X0054657Y0057356D01*
X0055611Y0057356D01*
X0056494Y0057721D01*
X0057169Y0058396D01*
X0057534Y0059279D01*
X0057534Y0060233D01*
X0057169Y0061115D01*
X0056126Y0061943D02*
X0091532Y0061943D01*
X0091532Y0062741D02*
X0079159Y0062741D01*
X0080212Y0063540D02*
X0091532Y0063540D01*
X0091532Y0064338D02*
X0080576Y0064338D01*
X0080634Y0065137D02*
X0091532Y0065137D01*
X0091532Y0065935D02*
X0080426Y0065935D01*
X0079850Y0066734D02*
X0091532Y0066734D01*
X0093694Y0073122D02*
X0099356Y0073122D01*
X0098275Y0073920D02*
X0094361Y0073920D01*
X0094634Y0074719D02*
X0097900Y0074719D01*
X0097834Y0075517D02*
X0094634Y0075517D01*
X0094310Y0076316D02*
X0098034Y0076316D01*
X0098598Y0077114D02*
X0093536Y0077114D01*
X0110075Y0094021D02*
X0110957Y0093656D01*
X0111911Y0093656D01*
X0112794Y0094021D01*
X0113469Y0094696D01*
X0113834Y0095579D01*
X0113834Y0096533D01*
X0113469Y0097415D01*
X0112794Y0098091D01*
X0111911Y0098456D01*
X0110957Y0098456D01*
X0110075Y0098091D01*
X0109399Y0097415D01*
X0109034Y0096533D01*
X0109034Y0095579D01*
X0109399Y0094696D01*
X0110075Y0094021D01*
X0110408Y0093883D02*
X0065941Y0093883D01*
X0065941Y0093085D02*
X0119733Y0093085D01*
X0119776Y0092982D02*
X0120620Y0092138D01*
X0121722Y0091681D01*
X0122916Y0091681D01*
X0124018Y0092138D01*
X0124862Y0092982D01*
X0125319Y0094084D01*
X0125319Y0095278D01*
X0124862Y0096380D01*
X0124018Y0097224D01*
X0122916Y0097681D01*
X0121722Y0097681D01*
X0120620Y0097224D01*
X0119776Y0096380D01*
X0119319Y0095278D01*
X0119319Y0094084D01*
X0119776Y0092982D01*
X0119402Y0093883D02*
X0112460Y0093883D01*
X0113454Y0094682D02*
X0119319Y0094682D01*
X0119403Y0095480D02*
X0113793Y0095480D01*
X0113834Y0096279D02*
X0119734Y0096279D01*
X0120473Y0097077D02*
X0113609Y0097077D01*
X0113008Y0097876D02*
X0197831Y0097876D01*
X0197831Y0098674D02*
X0083610Y0098674D01*
X0083669Y0098615D02*
X0082994Y0099291D01*
X0082111Y0099656D01*
X0081157Y0099656D01*
X0080275Y0099291D01*
X0079599Y0098615D01*
X0079234Y0097733D01*
X0079234Y0096779D01*
X0079599Y0095896D01*
X0080275Y0095221D01*
X0081157Y0094856D01*
X0082111Y0094856D01*
X0082994Y0095221D01*
X0083669Y0095896D01*
X0084034Y0096779D01*
X0084034Y0097733D01*
X0083669Y0098615D01*
X0083975Y0097876D02*
X0109860Y0097876D01*
X0109259Y0097077D02*
X0084034Y0097077D01*
X0083827Y0096279D02*
X0109034Y0096279D01*
X0109075Y0095480D02*
X0083252Y0095480D01*
X0080016Y0095480D02*
X0070752Y0095480D01*
X0070494Y0095221D02*
X0071169Y0095896D01*
X0071534Y0096779D01*
X0071534Y0097733D01*
X0071169Y0098615D01*
X0070494Y0099291D01*
X0069611Y0099656D01*
X0068657Y0099656D01*
X0067775Y0099291D01*
X0067099Y0098615D01*
X0066734Y0097733D01*
X0066734Y0096779D01*
X0067099Y0095896D01*
X0067775Y0095221D01*
X0068657Y0094856D01*
X0069611Y0094856D01*
X0070494Y0095221D01*
X0071327Y0096279D02*
X0079441Y0096279D01*
X0079234Y0097077D02*
X0071534Y0097077D01*
X0071475Y0097876D02*
X0079293Y0097876D01*
X0079658Y0098674D02*
X0071110Y0098674D01*
X0070053Y0099473D02*
X0080715Y0099473D01*
X0082553Y0099473D02*
X0197831Y0099473D01*
X0197831Y0100271D02*
X0051824Y0100271D01*
X0052034Y0101070D02*
X0197831Y0101070D01*
X0197831Y0101868D02*
X0051978Y0101868D01*
X0051617Y0102667D02*
X0197831Y0102667D01*
X0197831Y0103465D02*
X0050571Y0103465D01*
X0048697Y0103465D02*
X0043071Y0103465D01*
X0044117Y0102667D02*
X0047651Y0102667D01*
X0047290Y0101868D02*
X0044478Y0101868D01*
X0044534Y0101070D02*
X0047234Y0101070D01*
X0047444Y0100271D02*
X0044324Y0100271D01*
X0041197Y0103465D02*
X0024603Y0103465D01*
X0024603Y0102667D02*
X0040151Y0102667D01*
X0039790Y0101868D02*
X0024603Y0101868D01*
X0024603Y0101070D02*
X0039734Y0101070D01*
X0039944Y0100271D02*
X0024603Y0100271D01*
X0024603Y0104264D02*
X0054613Y0104264D01*
X0054475Y0104321D02*
X0055357Y0103956D01*
X0056311Y0103956D01*
X0057194Y0104321D01*
X0057869Y0104996D01*
X0058234Y0105879D01*
X0058234Y0106833D01*
X0057869Y0107715D01*
X0057194Y0108391D01*
X0056311Y0108756D01*
X0055357Y0108756D01*
X0054475Y0108391D01*
X0053799Y0107715D01*
X0053434Y0106833D01*
X0053434Y0105879D01*
X0053799Y0104996D01*
X0054475Y0104321D01*
X0053772Y0105062D02*
X0024603Y0105062D01*
X0024603Y0105861D02*
X0028808Y0105861D01*
X0028473Y0106196D02*
X0029149Y0105520D01*
X0030031Y0105155D01*
X0030985Y0105155D01*
X0031868Y0105520D01*
X0032543Y0106196D01*
X0032908Y0107078D01*
X0032908Y0108033D01*
X0032543Y0108915D01*
X0031868Y0109590D01*
X0030985Y0109955D01*
X0030031Y0109955D01*
X0029149Y0109590D01*
X0028473Y0108915D01*
X0028108Y0108033D01*
X0028108Y0107078D01*
X0028473Y0106196D01*
X0028281Y0106659D02*
X0024603Y0106659D01*
X0024603Y0107458D02*
X0028108Y0107458D01*
X0028201Y0108256D02*
X0024603Y0108256D01*
X0024603Y0109055D02*
X0028614Y0109055D01*
X0029785Y0109853D02*
X0024603Y0109853D01*
X0024603Y0110652D02*
X0065907Y0110652D01*
X0065734Y0110233D02*
X0066099Y0111115D01*
X0066775Y0111791D01*
X0067657Y0112156D01*
X0068611Y0112156D01*
X0069494Y0111791D01*
X0070169Y0111115D01*
X0070534Y0110233D01*
X0070534Y0109279D01*
X0070169Y0108396D01*
X0069494Y0107721D01*
X0068611Y0107356D01*
X0067657Y0107356D01*
X0066775Y0107721D01*
X0066099Y0108396D01*
X0065734Y0109279D01*
X0065734Y0110233D01*
X0065734Y0109853D02*
X0031231Y0109853D01*
X0032402Y0109055D02*
X0065827Y0109055D01*
X0066239Y0108256D02*
X0057328Y0108256D01*
X0057975Y0107458D02*
X0067410Y0107458D01*
X0068858Y0107458D02*
X0079910Y0107458D01*
X0080157Y0107356D02*
X0081111Y0107356D01*
X0081994Y0107721D01*
X0082669Y0108396D01*
X0083034Y0109279D01*
X0083034Y0110233D01*
X0082669Y0111115D01*
X0081994Y0111791D01*
X0081111Y0112156D01*
X0080157Y0112156D01*
X0079275Y0111791D01*
X0078599Y0111115D01*
X0078234Y0110233D01*
X0078234Y0109279D01*
X0078599Y0108396D01*
X0079275Y0107721D01*
X0080157Y0107356D01*
X0081358Y0107458D02*
X0197831Y0107458D01*
X0197831Y0108256D02*
X0082529Y0108256D01*
X0082941Y0109055D02*
X0197831Y0109055D01*
X0197831Y0109853D02*
X0083034Y0109853D01*
X0082861Y0110652D02*
X0197831Y0110652D01*
X0197831Y0111450D02*
X0082334Y0111450D01*
X0078934Y0111450D02*
X0069834Y0111450D01*
X0070361Y0110652D02*
X0078407Y0110652D01*
X0078234Y0109853D02*
X0070534Y0109853D01*
X0070441Y0109055D02*
X0078327Y0109055D01*
X0078739Y0108256D02*
X0070029Y0108256D01*
X0066434Y0111450D02*
X0024603Y0111450D01*
X0024603Y0112249D02*
X0150104Y0112249D01*
X0150116Y0112244D02*
X0151552Y0112244D01*
X0152880Y0112794D01*
X0153896Y0113810D01*
X0154446Y0115137D01*
X0154446Y0116574D01*
X0153896Y0117902D01*
X0152880Y0118918D01*
X0151552Y0119468D01*
X0150116Y0119468D01*
X0148788Y0118918D01*
X0147772Y0117902D01*
X0147222Y0116574D01*
X0147222Y0115137D01*
X0147772Y0113810D01*
X0148788Y0112794D01*
X0150116Y0112244D01*
X0151564Y0112249D02*
X0160104Y0112249D01*
X0160116Y0112244D02*
X0161552Y0112244D01*
X0162880Y0112794D01*
X0163896Y0113810D01*
X0164446Y0115137D01*
X0164446Y0116574D01*
X0163896Y0117902D01*
X0162880Y0118918D01*
X0161552Y0119468D01*
X0160116Y0119468D01*
X0158788Y0118918D01*
X0157772Y0117902D01*
X0157222Y0116574D01*
X0157222Y0115137D01*
X0157772Y0113810D01*
X0158788Y0112794D01*
X0160116Y0112244D01*
X0161564Y0112249D02*
X0170104Y0112249D01*
X0170116Y0112244D02*
X0171552Y0112244D01*
X0172880Y0112794D01*
X0173896Y0113810D01*
X0174446Y0115137D01*
X0174446Y0116574D01*
X0173896Y0117902D01*
X0172880Y0118918D01*
X0171552Y0119468D01*
X0170116Y0119468D01*
X0168788Y0118918D01*
X0167772Y0117902D01*
X0167222Y0116574D01*
X0167222Y0115137D01*
X0167772Y0113810D01*
X0168788Y0112794D01*
X0170116Y0112244D01*
X0171564Y0112249D02*
X0180104Y0112249D01*
X0180116Y0112244D02*
X0181552Y0112244D01*
X0182880Y0112794D01*
X0183896Y0113810D01*
X0184446Y0115137D01*
X0184446Y0116574D01*
X0183896Y0117902D01*
X0182880Y0118918D01*
X0181552Y0119468D01*
X0180116Y0119468D01*
X0178788Y0118918D01*
X0177772Y0117902D01*
X0177222Y0116574D01*
X0177222Y0115137D01*
X0177772Y0113810D01*
X0178788Y0112794D01*
X0180116Y0112244D01*
X0181564Y0112249D02*
X0188293Y0112249D01*
X0188522Y0112083D02*
X0187960Y0112491D01*
X0187469Y0112982D01*
X0187061Y0113544D01*
X0186745Y0114162D01*
X0186531Y0114823D01*
X0186431Y0115456D01*
X0190434Y0115456D01*
X0190434Y0116256D01*
X0190434Y0120259D01*
X0189801Y0120159D01*
X0189140Y0119944D01*
X0188522Y0119629D01*
X0187960Y0119221D01*
X0187469Y0118730D01*
X0187061Y0118168D01*
X0186745Y0117549D01*
X0186531Y0116889D01*
X0186431Y0116256D01*
X0190434Y0116256D01*
X0191234Y0116256D01*
X0191234Y0120259D01*
X0191867Y0120159D01*
X0192528Y0119944D01*
X0193146Y0119629D01*
X0193708Y0119221D01*
X0194199Y0118730D01*
X0194607Y0118168D01*
X0194923Y0117549D01*
X0195137Y0116889D01*
X0195237Y0116256D01*
X0191234Y0116256D01*
X0191234Y0115456D01*
X0195237Y0115456D01*
X0195137Y0114823D01*
X0194923Y0114162D01*
X0194607Y0113544D01*
X0194199Y0112982D01*
X0193708Y0112491D01*
X0193146Y0112083D01*
X0192528Y0111767D01*
X0191867Y0111553D01*
X0191234Y0111452D01*
X0191234Y0115456D01*
X0190434Y0115456D01*
X0190434Y0111452D01*
X0189801Y0111553D01*
X0189140Y0111767D01*
X0188522Y0112083D01*
X0187421Y0113047D02*
X0183133Y0113047D01*
X0183911Y0113846D02*
X0186907Y0113846D01*
X0186589Y0114645D02*
X0184242Y0114645D01*
X0184446Y0115443D02*
X0186433Y0115443D01*
X0186580Y0117040D02*
X0184253Y0117040D01*
X0184446Y0116242D02*
X0190434Y0116242D01*
X0190434Y0117040D02*
X0191234Y0117040D01*
X0191234Y0116242D02*
X0197831Y0116242D01*
X0197831Y0117040D02*
X0195088Y0117040D01*
X0194775Y0117839D02*
X0197831Y0117839D01*
X0197831Y0118637D02*
X0194267Y0118637D01*
X0193413Y0119436D02*
X0197831Y0119436D01*
X0197831Y0120234D02*
X0191393Y0120234D01*
X0191234Y0120234D02*
X0190434Y0120234D01*
X0190275Y0120234D02*
X0070006Y0120234D01*
X0069994Y0120221D02*
X0070669Y0120896D01*
X0071034Y0121779D01*
X0071034Y0122733D01*
X0070669Y0123615D01*
X0069994Y0124291D01*
X0069111Y0124656D01*
X0068157Y0124656D01*
X0067275Y0124291D01*
X0066599Y0123615D01*
X0066234Y0122733D01*
X0066234Y0121779D01*
X0066599Y0120896D01*
X0067275Y0120221D01*
X0068157Y0119856D01*
X0069111Y0119856D01*
X0069994Y0120221D01*
X0070725Y0121033D02*
X0197831Y0121033D01*
X0197831Y0121831D02*
X0071034Y0121831D01*
X0071034Y0122630D02*
X0197831Y0122630D01*
X0197831Y0123428D02*
X0070746Y0123428D01*
X0070057Y0124227D02*
X0197831Y0124227D01*
X0197831Y0125025D02*
X0024603Y0125025D01*
X0024603Y0124227D02*
X0067211Y0124227D01*
X0066522Y0123428D02*
X0024603Y0123428D01*
X0024603Y0122630D02*
X0066234Y0122630D01*
X0066234Y0121831D02*
X0024603Y0121831D01*
X0024603Y0121033D02*
X0036654Y0121033D01*
X0036347Y0120726D02*
X0035982Y0119844D01*
X0035982Y0118889D01*
X0036347Y0118007D01*
X0037023Y0117332D01*
X0037905Y0116966D01*
X0038859Y0116966D01*
X0039742Y0117332D01*
X0040417Y0118007D01*
X0040782Y0118889D01*
X0040782Y0119844D01*
X0040417Y0120726D01*
X0039742Y0121401D01*
X0038859Y0121766D01*
X0037905Y0121766D01*
X0037023Y0121401D01*
X0036347Y0120726D01*
X0036144Y0120234D02*
X0024603Y0120234D01*
X0024603Y0119436D02*
X0035982Y0119436D01*
X0036086Y0118637D02*
X0024603Y0118637D01*
X0024603Y0117839D02*
X0036516Y0117839D01*
X0037726Y0117040D02*
X0024603Y0117040D01*
X0024603Y0116242D02*
X0147222Y0116242D01*
X0147222Y0115443D02*
X0024603Y0115443D01*
X0024603Y0114645D02*
X0147426Y0114645D01*
X0147757Y0113846D02*
X0024603Y0113846D01*
X0024603Y0113047D02*
X0148535Y0113047D01*
X0147415Y0117040D02*
X0039038Y0117040D01*
X0040249Y0117839D02*
X0147746Y0117839D01*
X0148507Y0118637D02*
X0040678Y0118637D01*
X0040782Y0119436D02*
X0150038Y0119436D01*
X0151630Y0119436D02*
X0160038Y0119436D01*
X0161630Y0119436D02*
X0170038Y0119436D01*
X0171630Y0119436D02*
X0180038Y0119436D01*
X0181630Y0119436D02*
X0188255Y0119436D01*
X0187401Y0118637D02*
X0183161Y0118637D01*
X0183922Y0117839D02*
X0186893Y0117839D01*
X0190434Y0117839D02*
X0191234Y0117839D01*
X0191234Y0118637D02*
X0190434Y0118637D01*
X0190434Y0119436D02*
X0191234Y0119436D01*
X0191234Y0115443D02*
X0190434Y0115443D01*
X0190434Y0114645D02*
X0191234Y0114645D01*
X0191234Y0113846D02*
X0190434Y0113846D01*
X0190434Y0113047D02*
X0191234Y0113047D01*
X0191234Y0112249D02*
X0190434Y0112249D01*
X0193375Y0112249D02*
X0197831Y0112249D01*
X0197831Y0113047D02*
X0194247Y0113047D01*
X0194761Y0113846D02*
X0197831Y0113846D01*
X0197831Y0114645D02*
X0195079Y0114645D01*
X0195235Y0115443D02*
X0197831Y0115443D01*
X0197831Y0106659D02*
X0058234Y0106659D01*
X0058227Y0105861D02*
X0197831Y0105861D01*
X0197831Y0105062D02*
X0057896Y0105062D01*
X0057055Y0104264D02*
X0197831Y0104264D01*
X0197831Y0097077D02*
X0124166Y0097077D01*
X0124904Y0096279D02*
X0197831Y0096279D01*
X0197831Y0095480D02*
X0125235Y0095480D01*
X0125319Y0094682D02*
X0197831Y0094682D01*
X0197831Y0093883D02*
X0125236Y0093883D01*
X0124905Y0093085D02*
X0126571Y0093085D01*
X0126571Y0092286D02*
X0124167Y0092286D01*
X0126571Y0091488D02*
X0065941Y0091488D01*
X0065941Y0092286D02*
X0120471Y0092286D01*
X0126571Y0090689D02*
X0065941Y0090689D01*
X0065941Y0089891D02*
X0126571Y0089891D01*
X0109414Y0094682D02*
X0065941Y0094682D01*
X0065941Y0095480D02*
X0067516Y0095480D01*
X0066941Y0096279D02*
X0065941Y0096279D01*
X0065941Y0097077D02*
X0066734Y0097077D01*
X0066793Y0097876D02*
X0065941Y0097876D01*
X0065941Y0098674D02*
X0067158Y0098674D01*
X0068215Y0099473D02*
X0065941Y0099473D01*
X0053441Y0105861D02*
X0032208Y0105861D01*
X0032735Y0106659D02*
X0053434Y0106659D01*
X0053693Y0107458D02*
X0032908Y0107458D01*
X0032815Y0108256D02*
X0054340Y0108256D01*
X0067262Y0120234D02*
X0040620Y0120234D01*
X0040110Y0121033D02*
X0066543Y0121033D01*
X0056494Y0130721D02*
X0055611Y0130356D01*
X0054657Y0130356D01*
X0053775Y0130721D01*
X0053099Y0131396D01*
X0052734Y0132279D01*
X0052734Y0133233D01*
X0053099Y0134115D01*
X0053775Y0134791D01*
X0054657Y0135156D01*
X0055611Y0135156D01*
X0056494Y0134791D01*
X0057169Y0134115D01*
X0057534Y0133233D01*
X0057534Y0132279D01*
X0057169Y0131396D01*
X0056494Y0130721D01*
X0056236Y0130615D02*
X0085381Y0130615D01*
X0085099Y0130896D02*
X0085775Y0130221D01*
X0086657Y0129856D01*
X0087611Y0129856D01*
X0088494Y0130221D01*
X0089169Y0130896D01*
X0089534Y0131779D01*
X0089534Y0132733D01*
X0089169Y0133615D01*
X0088494Y0134291D01*
X0087611Y0134656D01*
X0086657Y0134656D01*
X0085775Y0134291D01*
X0085099Y0133615D01*
X0084734Y0132733D01*
X0084734Y0131779D01*
X0085099Y0130896D01*
X0084885Y0131413D02*
X0057176Y0131413D01*
X0057506Y0132212D02*
X0084734Y0132212D01*
X0084849Y0133010D02*
X0057534Y0133010D01*
X0057296Y0133809D02*
X0085293Y0133809D01*
X0086539Y0134607D02*
X0056677Y0134607D01*
X0053591Y0134607D02*
X0024603Y0134607D01*
X0024603Y0133809D02*
X0052972Y0133809D01*
X0052734Y0133010D02*
X0024603Y0133010D01*
X0024603Y0132212D02*
X0052762Y0132212D01*
X0053092Y0131413D02*
X0024603Y0131413D01*
X0024603Y0130615D02*
X0054032Y0130615D01*
X0024603Y0129816D02*
X0197831Y0129816D01*
X0197831Y0129018D02*
X0024603Y0129018D01*
X0024603Y0128219D02*
X0197831Y0128219D01*
X0197831Y0127421D02*
X0024603Y0127421D01*
X0024603Y0126622D02*
X0197831Y0126622D01*
X0197831Y0125824D02*
X0024603Y0125824D01*
X0024603Y0135406D02*
X0197831Y0135406D01*
X0197831Y0136204D02*
X0024603Y0136204D01*
X0024603Y0137003D02*
X0197831Y0137003D01*
X0197831Y0134607D02*
X0087729Y0134607D01*
X0088975Y0133809D02*
X0197831Y0133809D01*
X0197831Y0133010D02*
X0089419Y0133010D01*
X0089534Y0132212D02*
X0197831Y0132212D01*
X0197831Y0131413D02*
X0089383Y0131413D01*
X0088887Y0130615D02*
X0197831Y0130615D01*
X0178507Y0118637D02*
X0173161Y0118637D01*
X0173922Y0117839D02*
X0177746Y0117839D01*
X0177415Y0117040D02*
X0174253Y0117040D01*
X0174446Y0116242D02*
X0177222Y0116242D01*
X0177222Y0115443D02*
X0174446Y0115443D01*
X0174242Y0114645D02*
X0177426Y0114645D01*
X0177757Y0113846D02*
X0173911Y0113846D01*
X0173133Y0113047D02*
X0178535Y0113047D01*
X0168535Y0113047D02*
X0163133Y0113047D01*
X0163911Y0113846D02*
X0167757Y0113846D01*
X0167426Y0114645D02*
X0164242Y0114645D01*
X0164446Y0115443D02*
X0167222Y0115443D01*
X0167222Y0116242D02*
X0164446Y0116242D01*
X0164253Y0117040D02*
X0167415Y0117040D01*
X0167746Y0117839D02*
X0163922Y0117839D01*
X0163161Y0118637D02*
X0168507Y0118637D01*
X0158507Y0118637D02*
X0153161Y0118637D01*
X0153922Y0117839D02*
X0157746Y0117839D01*
X0157415Y0117040D02*
X0154253Y0117040D01*
X0154446Y0116242D02*
X0157222Y0116242D01*
X0157222Y0115443D02*
X0154446Y0115443D01*
X0154242Y0114645D02*
X0157426Y0114645D01*
X0157757Y0113846D02*
X0153911Y0113846D01*
X0153133Y0113047D02*
X0158535Y0113047D01*
X0091532Y0059547D02*
X0057534Y0059547D01*
X0057315Y0058749D02*
X0091532Y0058749D01*
X0091532Y0057950D02*
X0086121Y0057950D01*
X0085774Y0057950D02*
X0084974Y0057950D01*
X0084974Y0058019D02*
X0084266Y0057878D01*
X0083574Y0057592D01*
X0082952Y0057176D01*
X0082423Y0056647D01*
X0082007Y0056024D01*
X0081720Y0055333D01*
X0081579Y0054624D01*
X0084974Y0054624D01*
X0084974Y0053824D01*
X0085774Y0053824D01*
X0085774Y0050430D01*
X0086483Y0050570D01*
X0087174Y0050857D01*
X0087797Y0051273D01*
X0088326Y0051802D01*
X0088742Y0052424D01*
X0089028Y0053116D01*
X0089169Y0053824D01*
X0085774Y0053824D01*
X0085774Y0054624D01*
X0089169Y0054624D01*
X0089028Y0055333D01*
X0088742Y0056024D01*
X0088326Y0056647D01*
X0087797Y0057176D01*
X0087174Y0057592D01*
X0086483Y0057878D01*
X0085774Y0058019D01*
X0085774Y0054624D01*
X0084974Y0054624D01*
X0084974Y0058019D01*
X0084627Y0057950D02*
X0056722Y0057950D01*
X0053546Y0057950D02*
X0043634Y0057950D01*
X0043634Y0057152D02*
X0082927Y0057152D01*
X0082226Y0056353D02*
X0043634Y0056353D01*
X0043634Y0055555D02*
X0081812Y0055555D01*
X0081606Y0054756D02*
X0043634Y0054756D01*
X0043634Y0053958D02*
X0084974Y0053958D01*
X0084974Y0053824D02*
X0081579Y0053824D01*
X0081720Y0053116D01*
X0082007Y0052424D01*
X0082423Y0051802D01*
X0082952Y0051273D01*
X0083574Y0050857D01*
X0084266Y0050570D01*
X0084974Y0050430D01*
X0084974Y0053824D01*
X0084974Y0053159D02*
X0085774Y0053159D01*
X0085774Y0052361D02*
X0084974Y0052361D01*
X0084974Y0051562D02*
X0085774Y0051562D01*
X0085774Y0050764D02*
X0084974Y0050764D01*
X0083799Y0050764D02*
X0048656Y0050764D01*
X0048656Y0050523D02*
X0048656Y0051477D01*
X0048291Y0052359D01*
X0047616Y0053035D01*
X0046733Y0053400D01*
X0045779Y0053400D01*
X0044897Y0053035D01*
X0044221Y0052359D01*
X0043856Y0051477D01*
X0043856Y0050523D01*
X0044221Y0049641D01*
X0044897Y0048965D01*
X0045779Y0048600D01*
X0046733Y0048600D01*
X0047616Y0048965D01*
X0048291Y0049641D01*
X0048656Y0050523D01*
X0048425Y0049965D02*
X0091532Y0049965D01*
X0091532Y0049167D02*
X0047817Y0049167D01*
X0048621Y0051562D02*
X0082662Y0051562D01*
X0082049Y0052361D02*
X0048290Y0052361D01*
X0047315Y0053159D02*
X0081712Y0053159D01*
X0084974Y0054756D02*
X0085774Y0054756D01*
X0085774Y0053958D02*
X0091532Y0053958D01*
X0091532Y0054756D02*
X0089143Y0054756D01*
X0088936Y0055555D02*
X0091532Y0055555D01*
X0091532Y0056353D02*
X0088522Y0056353D01*
X0087821Y0057152D02*
X0091532Y0057152D01*
X0091532Y0053159D02*
X0089037Y0053159D01*
X0088699Y0052361D02*
X0091532Y0052361D01*
X0091532Y0051562D02*
X0088086Y0051562D01*
X0086949Y0050764D02*
X0091532Y0050764D01*
X0091532Y0048368D02*
X0043634Y0048368D01*
X0043634Y0047570D02*
X0091532Y0047570D01*
X0091532Y0046771D02*
X0043634Y0046771D01*
X0043634Y0045973D02*
X0091532Y0045973D01*
X0091532Y0045174D02*
X0043634Y0045174D01*
X0043634Y0049167D02*
X0044695Y0049167D01*
X0044087Y0049965D02*
X0043634Y0049965D01*
X0043634Y0050764D02*
X0043856Y0050764D01*
X0043891Y0051562D02*
X0043634Y0051562D01*
X0043634Y0052361D02*
X0044223Y0052361D01*
X0043634Y0053159D02*
X0045197Y0053159D01*
X0043634Y0058749D02*
X0052953Y0058749D01*
X0052734Y0059547D02*
X0043634Y0059547D01*
X0043634Y0060346D02*
X0052781Y0060346D01*
X0053128Y0061144D02*
X0047297Y0061144D01*
X0047616Y0061276D02*
X0048291Y0061952D01*
X0048656Y0062834D01*
X0048656Y0063788D01*
X0048291Y0064671D01*
X0047616Y0065346D01*
X0046733Y0065711D01*
X0045779Y0065711D01*
X0044897Y0065346D01*
X0044221Y0064671D01*
X0043856Y0063788D01*
X0043856Y0062834D01*
X0044221Y0061952D01*
X0044897Y0061276D01*
X0045779Y0060911D01*
X0046733Y0060911D01*
X0047616Y0061276D01*
X0048282Y0061943D02*
X0054142Y0061943D01*
X0054522Y0062741D02*
X0048618Y0062741D01*
X0048656Y0063540D02*
X0053886Y0063540D01*
X0053886Y0064338D02*
X0048428Y0064338D01*
X0047824Y0065137D02*
X0053886Y0065137D01*
X0053886Y0065935D02*
X0043634Y0065935D01*
X0043634Y0065137D02*
X0044688Y0065137D01*
X0044084Y0064338D02*
X0043634Y0064338D01*
X0043634Y0063540D02*
X0043856Y0063540D01*
X0043894Y0062741D02*
X0043634Y0062741D01*
X0043634Y0061943D02*
X0044230Y0061943D01*
X0043634Y0061144D02*
X0045216Y0061144D01*
X0043634Y0066734D02*
X0053886Y0066734D01*
X0053886Y0067532D02*
X0043634Y0067532D01*
X0043634Y0068331D02*
X0053886Y0068331D01*
X0053886Y0069129D02*
X0043634Y0069129D01*
X0043634Y0069928D02*
X0053886Y0069928D01*
X0053886Y0070726D02*
X0043634Y0070726D01*
X0043634Y0071525D02*
X0053886Y0071525D01*
X0054004Y0072323D02*
X0043634Y0072323D01*
X0047949Y0073920D02*
X0061575Y0073920D01*
X0060966Y0074719D02*
X0048480Y0074719D01*
X0084974Y0057152D02*
X0085774Y0057152D01*
X0085774Y0056353D02*
X0084974Y0056353D01*
X0084974Y0055555D02*
X0085774Y0055555D01*
D15*
X0098034Y0009056D03*
X0147434Y0053256D03*
X0147434Y0076656D03*
X0189034Y0076656D03*
X0189034Y0053256D03*
X0189034Y0009056D03*
M02*
