G75*
%MOIN*%
%OFA0B0*%
%FSLAX25Y25*%
%IPPOS*%
%LPD*%
%AMOC8*
5,1,8,0,0,1.08239X$1,22.5*
%
%ADD10C,0.00200*%
%ADD11C,0.00600*%
%ADD12C,0.00500*%
%ADD13R,0.01969X0.02953*%
%ADD14C,0.02000*%
%ADD15C,0.00300*%
%ADD16R,0.02000X0.08000*%
%ADD17R,0.07500X0.02000*%
%ADD18R,0.03937X0.07874*%
D10*
X0036671Y0016664D02*
X0037097Y0016238D01*
X0037950Y0016238D01*
X0038376Y0016664D01*
X0038376Y0018796D01*
X0039209Y0017943D02*
X0040061Y0018796D01*
X0040061Y0016238D01*
X0039209Y0016238D02*
X0040914Y0016238D01*
X0036671Y0016664D02*
X0036671Y0018796D01*
X0042074Y0033651D02*
X0044632Y0033651D01*
X0044632Y0035356D01*
X0044632Y0036188D02*
X0042927Y0037894D01*
X0042501Y0037894D01*
X0042074Y0037467D01*
X0042074Y0036615D01*
X0042501Y0036188D01*
X0044632Y0036188D02*
X0044632Y0037894D01*
X0045086Y0056809D02*
X0045938Y0056809D01*
X0046365Y0057235D01*
X0047197Y0056809D02*
X0048902Y0056809D01*
X0048050Y0056809D02*
X0048050Y0059367D01*
X0047197Y0058514D01*
X0046365Y0058940D02*
X0045938Y0059367D01*
X0045086Y0059367D01*
X0044659Y0058940D01*
X0044659Y0057235D01*
X0045086Y0056809D01*
X0049734Y0058088D02*
X0051440Y0058088D01*
X0051013Y0056809D02*
X0051013Y0059367D01*
X0049734Y0058088D01*
X0059525Y0058008D02*
X0059525Y0055877D01*
X0059952Y0055450D01*
X0060804Y0055450D01*
X0061231Y0055877D01*
X0061231Y0058008D01*
X0062063Y0057582D02*
X0062489Y0058008D01*
X0063342Y0058008D01*
X0063768Y0057582D01*
X0063768Y0057156D01*
X0062063Y0055450D01*
X0063768Y0055450D01*
X0071474Y0057547D02*
X0071900Y0057121D01*
X0073605Y0057121D01*
X0074032Y0057547D01*
X0074032Y0058400D01*
X0073605Y0058826D01*
X0073605Y0059658D02*
X0074032Y0060085D01*
X0074032Y0060937D01*
X0073605Y0061364D01*
X0073179Y0061364D01*
X0072753Y0060937D01*
X0072753Y0060511D01*
X0072753Y0060937D02*
X0072326Y0061364D01*
X0071900Y0061364D01*
X0071474Y0060937D01*
X0071474Y0060085D01*
X0071900Y0059658D01*
X0071900Y0058826D02*
X0071474Y0058400D01*
X0071474Y0057547D01*
X0076112Y0056644D02*
X0076112Y0055791D01*
X0076539Y0055365D01*
X0078244Y0055365D01*
X0078670Y0055791D01*
X0078670Y0056644D01*
X0078244Y0057071D01*
X0078670Y0057903D02*
X0078670Y0059608D01*
X0078670Y0060440D02*
X0078670Y0062146D01*
X0078670Y0061293D02*
X0076112Y0061293D01*
X0076965Y0060440D01*
X0076112Y0058755D02*
X0078670Y0058755D01*
X0076965Y0057903D02*
X0076112Y0058755D01*
X0076539Y0057071D02*
X0076112Y0056644D01*
X0083302Y0059926D02*
X0083728Y0059500D01*
X0085434Y0059500D01*
X0085860Y0059926D01*
X0085860Y0060779D01*
X0085434Y0061205D01*
X0085434Y0062037D02*
X0085860Y0062464D01*
X0085860Y0063316D01*
X0085434Y0063743D01*
X0083728Y0063743D01*
X0083302Y0063316D01*
X0083302Y0062464D01*
X0083728Y0062037D01*
X0084155Y0062037D01*
X0084581Y0062464D01*
X0084581Y0063743D01*
X0083728Y0061205D02*
X0083302Y0060779D01*
X0083302Y0059926D01*
X0056456Y0078223D02*
X0056029Y0077797D01*
X0055177Y0077797D01*
X0054750Y0078223D01*
X0054750Y0079076D02*
X0055603Y0079502D01*
X0056029Y0079502D01*
X0056456Y0079076D01*
X0056456Y0078223D01*
X0054750Y0079076D02*
X0054750Y0080355D01*
X0056456Y0080355D01*
X0053065Y0080355D02*
X0053065Y0077797D01*
X0052213Y0077797D02*
X0053918Y0077797D01*
X0052213Y0079502D02*
X0053065Y0080355D01*
X0051380Y0079929D02*
X0050954Y0080355D01*
X0050101Y0080355D01*
X0049675Y0079929D01*
X0049675Y0078223D01*
X0050101Y0077797D01*
X0050954Y0077797D01*
X0051380Y0078223D01*
X0044747Y0072997D02*
X0044747Y0071291D01*
X0044747Y0070459D02*
X0044747Y0068754D01*
X0042189Y0068754D01*
X0043041Y0071291D02*
X0042189Y0072144D01*
X0044747Y0072144D01*
X0048734Y0086631D02*
X0049324Y0086631D01*
X0049619Y0086926D01*
X0050251Y0086631D02*
X0051431Y0086631D01*
X0050841Y0086631D02*
X0050841Y0088402D01*
X0050251Y0087812D01*
X0049619Y0088107D02*
X0049324Y0088402D01*
X0048734Y0088402D01*
X0048439Y0088107D01*
X0048439Y0086926D01*
X0048734Y0086631D01*
X0052064Y0086631D02*
X0052064Y0086926D01*
X0053244Y0088107D01*
X0053244Y0088402D01*
X0052064Y0088402D01*
X0028400Y0095353D02*
X0028400Y0096206D01*
X0027974Y0096632D01*
X0028400Y0097464D02*
X0028400Y0099170D01*
X0028400Y0098317D02*
X0025842Y0098317D01*
X0026695Y0097464D01*
X0026268Y0096632D02*
X0025842Y0096206D01*
X0025842Y0095353D01*
X0026268Y0094927D01*
X0027974Y0094927D01*
X0028400Y0095353D01*
X0027974Y0100002D02*
X0028400Y0100428D01*
X0028400Y0101281D01*
X0027974Y0101707D01*
X0027547Y0101707D01*
X0027121Y0101281D01*
X0027121Y0100855D01*
X0027121Y0101281D02*
X0026695Y0101707D01*
X0026268Y0101707D01*
X0025842Y0101281D01*
X0025842Y0100428D01*
X0026268Y0100002D01*
X0033591Y0119131D02*
X0035297Y0119131D01*
X0035723Y0119558D01*
X0035723Y0120411D01*
X0035297Y0120837D01*
X0035297Y0121669D02*
X0035723Y0121669D01*
X0035297Y0121669D02*
X0033591Y0123374D01*
X0033165Y0123374D01*
X0033165Y0121669D01*
X0033591Y0120837D02*
X0033165Y0120411D01*
X0033165Y0119558D01*
X0033591Y0119131D01*
X0037937Y0119361D02*
X0038363Y0118935D01*
X0040068Y0118935D01*
X0040495Y0119361D01*
X0040495Y0120214D01*
X0040068Y0120640D01*
X0040068Y0121472D02*
X0039642Y0121472D01*
X0039216Y0121899D01*
X0039216Y0122751D01*
X0039642Y0123178D01*
X0040068Y0123178D01*
X0040495Y0122751D01*
X0040495Y0121899D01*
X0040068Y0121472D01*
X0039216Y0121899D02*
X0038789Y0121472D01*
X0038363Y0121472D01*
X0037937Y0121899D01*
X0037937Y0122751D01*
X0038363Y0123178D01*
X0038789Y0123178D01*
X0039216Y0122751D01*
X0038363Y0120640D02*
X0037937Y0120214D01*
X0037937Y0119361D01*
X0038489Y0131230D02*
X0038063Y0131656D01*
X0038063Y0132509D01*
X0038489Y0132935D01*
X0038915Y0133768D02*
X0038063Y0134620D01*
X0040621Y0134620D01*
X0040621Y0133768D02*
X0040621Y0135473D01*
X0042748Y0135343D02*
X0042748Y0133638D01*
X0044027Y0133638D01*
X0043600Y0134490D01*
X0043600Y0134917D01*
X0044027Y0135343D01*
X0044879Y0135343D01*
X0045306Y0134917D01*
X0045306Y0134064D01*
X0044879Y0133638D01*
X0044879Y0132805D02*
X0045306Y0132379D01*
X0045306Y0131526D01*
X0044879Y0131100D01*
X0043174Y0131100D01*
X0042748Y0131526D01*
X0042748Y0132379D01*
X0043174Y0132805D01*
X0040621Y0132509D02*
X0040621Y0131656D01*
X0040194Y0131230D01*
X0038489Y0131230D01*
X0040194Y0132935D02*
X0040621Y0132509D01*
X0048106Y0132261D02*
X0048106Y0131408D01*
X0048532Y0130982D01*
X0050238Y0130982D01*
X0050664Y0131408D01*
X0050664Y0132261D01*
X0050238Y0132687D01*
X0050238Y0133519D02*
X0050664Y0133946D01*
X0050664Y0134799D01*
X0050238Y0135225D01*
X0049811Y0135225D01*
X0049385Y0134799D01*
X0049385Y0133519D01*
X0050238Y0133519D01*
X0049385Y0133519D02*
X0048532Y0134372D01*
X0048106Y0135225D01*
X0048532Y0132687D02*
X0048106Y0132261D01*
X0058266Y0121469D02*
X0058266Y0119337D01*
X0058692Y0118911D01*
X0059545Y0118911D01*
X0059971Y0119337D01*
X0059971Y0121469D01*
X0060803Y0120616D02*
X0061656Y0121469D01*
X0061656Y0118911D01*
X0060803Y0118911D02*
X0062509Y0118911D01*
X0080136Y0132070D02*
X0080562Y0131643D01*
X0081415Y0131643D01*
X0081841Y0132070D01*
X0082673Y0131643D02*
X0084379Y0131643D01*
X0083526Y0131643D02*
X0083526Y0134201D01*
X0082673Y0133349D01*
X0081841Y0133775D02*
X0081415Y0134201D01*
X0080562Y0134201D01*
X0080136Y0133775D01*
X0080136Y0132070D01*
X0085211Y0132070D02*
X0085211Y0132496D01*
X0085637Y0132922D01*
X0086490Y0132922D01*
X0086916Y0132496D01*
X0086916Y0132070D01*
X0086490Y0131643D01*
X0085637Y0131643D01*
X0085211Y0132070D01*
X0085637Y0132922D02*
X0085211Y0133349D01*
X0085211Y0133775D01*
X0085637Y0134201D01*
X0086490Y0134201D01*
X0086916Y0133775D01*
X0086916Y0133349D01*
X0086490Y0132922D01*
X0095496Y0132771D02*
X0095496Y0131918D01*
X0095922Y0131492D01*
X0095922Y0130660D02*
X0095496Y0130233D01*
X0095496Y0129381D01*
X0095922Y0128954D01*
X0097627Y0128954D01*
X0098054Y0129381D01*
X0098054Y0130233D01*
X0097627Y0130660D01*
X0098054Y0131492D02*
X0096348Y0133197D01*
X0095922Y0133197D01*
X0095496Y0132771D01*
X0098054Y0133197D02*
X0098054Y0131492D01*
X0110813Y0121134D02*
X0112092Y0121134D01*
X0112518Y0120708D01*
X0112518Y0119855D01*
X0112092Y0119429D01*
X0110813Y0119429D01*
X0111665Y0119429D02*
X0112518Y0118576D01*
X0113350Y0118576D02*
X0115056Y0120282D01*
X0115056Y0120708D01*
X0114629Y0121134D01*
X0113777Y0121134D01*
X0113350Y0120708D01*
X0113350Y0118576D02*
X0115056Y0118576D01*
X0110813Y0118576D02*
X0110813Y0121134D01*
X0111392Y0110331D02*
X0112671Y0110331D01*
X0113097Y0109905D01*
X0113097Y0109052D01*
X0112671Y0108626D01*
X0111392Y0108626D01*
X0112244Y0108626D02*
X0113097Y0107773D01*
X0113929Y0107773D02*
X0115634Y0107773D01*
X0114782Y0107773D02*
X0114782Y0110331D01*
X0113929Y0109479D01*
X0111392Y0110331D02*
X0111392Y0107773D01*
X0113652Y0103111D02*
X0113226Y0102684D01*
X0113226Y0100979D01*
X0113652Y0100553D01*
X0114505Y0100553D01*
X0114932Y0100979D01*
X0115764Y0100553D02*
X0117469Y0100553D01*
X0116616Y0100553D02*
X0116616Y0103111D01*
X0115764Y0102258D01*
X0114932Y0102684D02*
X0114505Y0103111D01*
X0113652Y0103111D01*
X0118301Y0101832D02*
X0118301Y0100979D01*
X0118728Y0100553D01*
X0119580Y0100553D01*
X0120007Y0100979D01*
X0120007Y0101405D01*
X0119580Y0101832D01*
X0118301Y0101832D01*
X0119154Y0102684D01*
X0120007Y0103111D01*
X0113043Y0092367D02*
X0111764Y0091088D01*
X0113469Y0091088D01*
X0113043Y0089809D02*
X0113043Y0092367D01*
X0110932Y0091940D02*
X0110505Y0092367D01*
X0109652Y0092367D01*
X0109226Y0091940D01*
X0109226Y0090235D01*
X0109652Y0089809D01*
X0110505Y0089809D01*
X0110932Y0090235D01*
X0123662Y0080913D02*
X0123873Y0080828D01*
X0124086Y0080748D01*
X0124301Y0080673D01*
X0124517Y0080604D01*
X0124735Y0080539D01*
X0124955Y0080480D01*
X0125176Y0080426D01*
X0125398Y0080377D01*
X0125622Y0080334D01*
X0125846Y0080296D01*
X0126071Y0080263D01*
X0126297Y0080236D01*
X0126524Y0080214D01*
X0126751Y0080198D01*
X0126978Y0080187D01*
X0127205Y0080182D01*
X0127433Y0080182D01*
X0127660Y0080187D01*
X0127887Y0080198D01*
X0128114Y0080214D01*
X0128341Y0080236D01*
X0128567Y0080263D01*
X0128792Y0080296D01*
X0129016Y0080334D01*
X0129240Y0080377D01*
X0129462Y0080426D01*
X0129683Y0080480D01*
X0129903Y0080539D01*
X0130121Y0080604D01*
X0130337Y0080673D01*
X0130552Y0080748D01*
X0130765Y0080828D01*
X0130976Y0080913D01*
X0136087Y0086024D02*
X0136173Y0086238D01*
X0136254Y0086455D01*
X0136330Y0086673D01*
X0136401Y0086894D01*
X0136466Y0087116D01*
X0136526Y0087339D01*
X0136580Y0087564D01*
X0136629Y0087790D01*
X0136672Y0088017D01*
X0136710Y0088245D01*
X0136742Y0088474D01*
X0136769Y0088704D01*
X0136790Y0088934D01*
X0136805Y0089165D01*
X0136815Y0089396D01*
X0136819Y0089627D01*
X0136817Y0089858D01*
X0136810Y0090089D01*
X0136797Y0090320D01*
X0136779Y0090551D01*
X0136755Y0090781D01*
X0136726Y0091010D01*
X0136690Y0091239D01*
X0136650Y0091466D01*
X0136604Y0091693D01*
X0136552Y0091918D01*
X0136495Y0092142D01*
X0136432Y0092365D01*
X0136364Y0092586D01*
X0136291Y0092805D01*
X0136212Y0093023D01*
X0136128Y0093238D01*
X0136039Y0093451D01*
X0135944Y0093662D01*
X0135845Y0093871D01*
X0135740Y0094077D01*
X0135631Y0094281D01*
X0135517Y0094482D01*
X0135397Y0094680D01*
X0135273Y0094875D01*
X0135144Y0095067D01*
X0135011Y0095256D01*
X0134873Y0095442D01*
X0134731Y0095624D01*
X0134584Y0095803D01*
X0134433Y0095978D01*
X0134277Y0096149D01*
X0134118Y0096316D01*
X0133954Y0096480D01*
X0133787Y0096639D01*
X0133616Y0096795D01*
X0133441Y0096946D01*
X0133262Y0097093D01*
X0133080Y0097235D01*
X0132894Y0097373D01*
X0132705Y0097506D01*
X0132513Y0097635D01*
X0132318Y0097759D01*
X0132120Y0097879D01*
X0131919Y0097993D01*
X0131715Y0098102D01*
X0131509Y0098207D01*
X0131300Y0098306D01*
X0131089Y0098401D01*
X0130876Y0098490D01*
X0130661Y0098574D01*
X0130443Y0098653D01*
X0130224Y0098726D01*
X0130003Y0098794D01*
X0129780Y0098857D01*
X0129556Y0098914D01*
X0129331Y0098966D01*
X0129104Y0099012D01*
X0128877Y0099052D01*
X0128648Y0099088D01*
X0128419Y0099117D01*
X0128189Y0099141D01*
X0127958Y0099159D01*
X0127727Y0099172D01*
X0127496Y0099179D01*
X0127265Y0099181D01*
X0127034Y0099177D01*
X0126803Y0099167D01*
X0126572Y0099152D01*
X0126342Y0099131D01*
X0126112Y0099104D01*
X0125883Y0099072D01*
X0125655Y0099034D01*
X0125428Y0098991D01*
X0125202Y0098942D01*
X0124977Y0098888D01*
X0124754Y0098828D01*
X0124532Y0098763D01*
X0124311Y0098692D01*
X0124093Y0098616D01*
X0123876Y0098535D01*
X0123662Y0098449D01*
X0118551Y0093338D02*
X0118466Y0093127D01*
X0118386Y0092914D01*
X0118311Y0092699D01*
X0118242Y0092483D01*
X0118177Y0092265D01*
X0118118Y0092045D01*
X0118064Y0091824D01*
X0118015Y0091602D01*
X0117972Y0091378D01*
X0117934Y0091154D01*
X0117901Y0090929D01*
X0117874Y0090703D01*
X0117852Y0090476D01*
X0117836Y0090249D01*
X0117825Y0090022D01*
X0117820Y0089795D01*
X0117820Y0089567D01*
X0117825Y0089340D01*
X0117836Y0089113D01*
X0117852Y0088886D01*
X0117874Y0088659D01*
X0117901Y0088433D01*
X0117934Y0088208D01*
X0117972Y0087984D01*
X0118015Y0087760D01*
X0118064Y0087538D01*
X0118118Y0087317D01*
X0118177Y0087097D01*
X0118242Y0086879D01*
X0118311Y0086663D01*
X0118386Y0086448D01*
X0118466Y0086235D01*
X0118551Y0086024D01*
X0155734Y0083061D02*
X0155734Y0081356D01*
X0155734Y0082635D02*
X0157439Y0082635D01*
X0157439Y0083061D02*
X0156587Y0083914D01*
X0155734Y0083061D01*
X0157439Y0083061D02*
X0157439Y0081356D01*
X0158272Y0081782D02*
X0158698Y0081356D01*
X0159551Y0081356D01*
X0159977Y0081782D01*
X0158272Y0081782D02*
X0158272Y0083488D01*
X0158698Y0083914D01*
X0159551Y0083914D01*
X0159977Y0083488D01*
X0163347Y0083914D02*
X0163347Y0081356D01*
X0165052Y0081356D02*
X0165052Y0083914D01*
X0164200Y0083061D01*
X0163347Y0083914D01*
X0165884Y0083061D02*
X0166737Y0083914D01*
X0167590Y0083061D01*
X0167590Y0081356D01*
X0168422Y0081356D02*
X0169275Y0081356D01*
X0168848Y0081356D02*
X0168848Y0083914D01*
X0168422Y0083914D02*
X0169275Y0083914D01*
X0170114Y0083914D02*
X0171819Y0081356D01*
X0171819Y0083914D01*
X0172651Y0083488D02*
X0172651Y0083061D01*
X0173078Y0082635D01*
X0173930Y0082635D01*
X0174357Y0082209D01*
X0174357Y0081782D01*
X0173930Y0081356D01*
X0173078Y0081356D01*
X0172651Y0081782D01*
X0172651Y0083488D02*
X0173078Y0083914D01*
X0173930Y0083914D01*
X0174357Y0083488D01*
X0177727Y0083488D02*
X0177727Y0081782D01*
X0178153Y0081356D01*
X0179006Y0081356D01*
X0179432Y0081782D01*
X0179432Y0082635D01*
X0178579Y0082635D01*
X0177727Y0083488D02*
X0178153Y0083914D01*
X0179006Y0083914D01*
X0179432Y0083488D01*
X0180264Y0083914D02*
X0181970Y0081356D01*
X0181970Y0083914D01*
X0182802Y0083914D02*
X0184081Y0083914D01*
X0184507Y0083488D01*
X0184507Y0081782D01*
X0184081Y0081356D01*
X0182802Y0081356D01*
X0182802Y0083914D01*
X0180264Y0083914D02*
X0180264Y0081356D01*
X0170114Y0081356D02*
X0170114Y0083914D01*
X0167590Y0082635D02*
X0165884Y0082635D01*
X0165884Y0083061D02*
X0165884Y0081356D01*
X0166552Y0063914D02*
X0166552Y0061356D01*
X0167384Y0061356D02*
X0167384Y0063061D01*
X0168237Y0063914D01*
X0169090Y0063061D01*
X0169090Y0061356D01*
X0169922Y0061356D02*
X0170775Y0061356D01*
X0170348Y0061356D02*
X0170348Y0063914D01*
X0169922Y0063914D02*
X0170775Y0063914D01*
X0171614Y0063914D02*
X0173319Y0061356D01*
X0173319Y0063914D01*
X0174151Y0063488D02*
X0174151Y0063061D01*
X0174578Y0062635D01*
X0175430Y0062635D01*
X0175857Y0062209D01*
X0175857Y0061782D01*
X0175430Y0061356D01*
X0174578Y0061356D01*
X0174151Y0061782D01*
X0174151Y0063488D02*
X0174578Y0063914D01*
X0175430Y0063914D01*
X0175857Y0063488D01*
X0179227Y0062635D02*
X0180932Y0062635D01*
X0171614Y0061356D02*
X0171614Y0063914D01*
X0169090Y0062635D02*
X0167384Y0062635D01*
X0166552Y0063914D02*
X0165700Y0063061D01*
X0164847Y0063914D01*
X0164847Y0061356D01*
X0161477Y0061782D02*
X0161051Y0061356D01*
X0160198Y0061356D01*
X0159772Y0061782D01*
X0159772Y0063488D01*
X0160198Y0063914D01*
X0161051Y0063914D01*
X0161477Y0063488D01*
X0158939Y0063061D02*
X0158939Y0061356D01*
X0158939Y0062635D02*
X0157234Y0062635D01*
X0157234Y0063061D02*
X0157234Y0061356D01*
X0157234Y0063061D02*
X0158087Y0063914D01*
X0158939Y0063061D01*
X0092357Y0010488D02*
X0091930Y0010914D01*
X0091078Y0010914D01*
X0090651Y0010488D01*
X0090651Y0010061D01*
X0091078Y0009635D01*
X0091930Y0009635D01*
X0092357Y0009209D01*
X0092357Y0008782D01*
X0091930Y0008356D01*
X0091078Y0008356D01*
X0090651Y0008782D01*
X0089819Y0008356D02*
X0089819Y0010914D01*
X0088114Y0010914D02*
X0089819Y0008356D01*
X0088114Y0008356D02*
X0088114Y0010914D01*
X0087275Y0010914D02*
X0086422Y0010914D01*
X0086848Y0010914D02*
X0086848Y0008356D01*
X0086422Y0008356D02*
X0087275Y0008356D01*
X0085590Y0008356D02*
X0085590Y0010061D01*
X0084737Y0010914D01*
X0083884Y0010061D01*
X0083884Y0008356D01*
X0083052Y0008356D02*
X0083052Y0010914D01*
X0082200Y0010061D01*
X0081347Y0010914D01*
X0081347Y0008356D01*
X0083884Y0009635D02*
X0085590Y0009635D01*
X0077977Y0010488D02*
X0077551Y0010914D01*
X0076698Y0010914D01*
X0076272Y0010488D01*
X0076272Y0008782D01*
X0076698Y0008356D01*
X0077551Y0008356D01*
X0077977Y0008782D01*
X0075439Y0008356D02*
X0075439Y0010061D01*
X0074587Y0010914D01*
X0073734Y0010061D01*
X0073734Y0008356D01*
X0073734Y0009635D02*
X0075439Y0009635D01*
X0095727Y0009635D02*
X0097432Y0009635D01*
X0096579Y0010488D02*
X0096579Y0008782D01*
D11*
X0097374Y0050224D02*
X0113374Y0050224D01*
X0113434Y0050226D01*
X0113495Y0050231D01*
X0113554Y0050240D01*
X0113613Y0050253D01*
X0113672Y0050269D01*
X0113729Y0050289D01*
X0113784Y0050312D01*
X0113839Y0050339D01*
X0113891Y0050368D01*
X0113942Y0050401D01*
X0113991Y0050437D01*
X0114037Y0050475D01*
X0114081Y0050517D01*
X0114123Y0050561D01*
X0114161Y0050607D01*
X0114197Y0050656D01*
X0114230Y0050707D01*
X0114259Y0050759D01*
X0114286Y0050814D01*
X0114309Y0050869D01*
X0114329Y0050926D01*
X0114345Y0050985D01*
X0114358Y0051044D01*
X0114367Y0051103D01*
X0114372Y0051164D01*
X0114374Y0051224D01*
X0114374Y0057224D01*
X0114372Y0057284D01*
X0114367Y0057345D01*
X0114358Y0057404D01*
X0114345Y0057463D01*
X0114329Y0057522D01*
X0114309Y0057579D01*
X0114286Y0057634D01*
X0114259Y0057689D01*
X0114230Y0057741D01*
X0114197Y0057792D01*
X0114161Y0057841D01*
X0114123Y0057887D01*
X0114081Y0057931D01*
X0114037Y0057973D01*
X0113991Y0058011D01*
X0113942Y0058047D01*
X0113891Y0058080D01*
X0113839Y0058109D01*
X0113784Y0058136D01*
X0113729Y0058159D01*
X0113672Y0058179D01*
X0113613Y0058195D01*
X0113554Y0058208D01*
X0113495Y0058217D01*
X0113434Y0058222D01*
X0113374Y0058224D01*
X0097374Y0058224D01*
X0097314Y0058222D01*
X0097253Y0058217D01*
X0097194Y0058208D01*
X0097135Y0058195D01*
X0097076Y0058179D01*
X0097019Y0058159D01*
X0096964Y0058136D01*
X0096909Y0058109D01*
X0096857Y0058080D01*
X0096806Y0058047D01*
X0096757Y0058011D01*
X0096711Y0057973D01*
X0096667Y0057931D01*
X0096625Y0057887D01*
X0096587Y0057841D01*
X0096551Y0057792D01*
X0096518Y0057741D01*
X0096489Y0057689D01*
X0096462Y0057634D01*
X0096439Y0057579D01*
X0096419Y0057522D01*
X0096403Y0057463D01*
X0096390Y0057404D01*
X0096381Y0057345D01*
X0096376Y0057284D01*
X0096374Y0057224D01*
X0096374Y0051224D01*
X0096376Y0051164D01*
X0096381Y0051103D01*
X0096390Y0051044D01*
X0096403Y0050985D01*
X0096419Y0050926D01*
X0096439Y0050869D01*
X0096462Y0050814D01*
X0096489Y0050759D01*
X0096518Y0050707D01*
X0096551Y0050656D01*
X0096587Y0050607D01*
X0096625Y0050561D01*
X0096667Y0050517D01*
X0096711Y0050475D01*
X0096757Y0050437D01*
X0096806Y0050401D01*
X0096857Y0050368D01*
X0096909Y0050339D01*
X0096964Y0050312D01*
X0097019Y0050289D01*
X0097076Y0050269D01*
X0097135Y0050253D01*
X0097194Y0050240D01*
X0097253Y0050231D01*
X0097314Y0050226D01*
X0097374Y0050224D01*
X0102874Y0054224D02*
X0105374Y0054224D01*
X0105374Y0056724D01*
X0106374Y0056724D01*
X0105374Y0054224D02*
X0105374Y0051724D01*
X0105374Y0054224D02*
X0109374Y0056724D01*
X0109374Y0051724D01*
X0105374Y0054224D01*
X0111374Y0054224D01*
X0114760Y0123933D02*
X0114760Y0126295D01*
X0114406Y0130272D02*
X0114406Y0132949D01*
X0115311Y0131610D02*
X0113185Y0131610D01*
X0136099Y0131256D02*
X0138225Y0131256D01*
X0137162Y0132516D02*
X0137162Y0129917D01*
X0137162Y0127083D02*
X0137162Y0125075D01*
D12*
X0033658Y0006768D02*
X0025784Y0006768D01*
X0025784Y0026453D01*
X0033658Y0026453D01*
X0033658Y0006768D01*
X0109488Y0005350D02*
X0172480Y0005350D01*
X0172480Y0044720D01*
X0109488Y0044720D01*
X0109488Y0005350D01*
X0115819Y0089681D02*
X0115822Y0089963D01*
X0115833Y0090245D01*
X0115850Y0090527D01*
X0115874Y0090808D01*
X0115905Y0091089D01*
X0115943Y0091368D01*
X0115988Y0091647D01*
X0116040Y0091925D01*
X0116098Y0092201D01*
X0116164Y0092475D01*
X0116236Y0092748D01*
X0116314Y0093019D01*
X0116399Y0093288D01*
X0116491Y0093555D01*
X0116590Y0093820D01*
X0116694Y0094082D01*
X0116806Y0094341D01*
X0116923Y0094598D01*
X0117047Y0094852D01*
X0117177Y0095102D01*
X0117313Y0095349D01*
X0117455Y0095593D01*
X0117603Y0095833D01*
X0117757Y0096070D01*
X0117917Y0096303D01*
X0118082Y0096532D01*
X0118253Y0096756D01*
X0118429Y0096977D01*
X0118611Y0097192D01*
X0118798Y0097404D01*
X0118990Y0097611D01*
X0119187Y0097813D01*
X0119389Y0098010D01*
X0119596Y0098202D01*
X0119808Y0098389D01*
X0120023Y0098571D01*
X0120244Y0098747D01*
X0120468Y0098918D01*
X0120697Y0099083D01*
X0120930Y0099243D01*
X0121167Y0099397D01*
X0121407Y0099545D01*
X0121651Y0099687D01*
X0121898Y0099823D01*
X0122148Y0099953D01*
X0122402Y0100077D01*
X0122659Y0100194D01*
X0122918Y0100306D01*
X0123180Y0100410D01*
X0123445Y0100509D01*
X0123712Y0100601D01*
X0123981Y0100686D01*
X0124252Y0100764D01*
X0124525Y0100836D01*
X0124799Y0100902D01*
X0125075Y0100960D01*
X0125353Y0101012D01*
X0125632Y0101057D01*
X0125911Y0101095D01*
X0126192Y0101126D01*
X0126473Y0101150D01*
X0126755Y0101167D01*
X0127037Y0101178D01*
X0127319Y0101181D01*
X0127601Y0101178D01*
X0127883Y0101167D01*
X0128165Y0101150D01*
X0128446Y0101126D01*
X0128727Y0101095D01*
X0129006Y0101057D01*
X0129285Y0101012D01*
X0129563Y0100960D01*
X0129839Y0100902D01*
X0130113Y0100836D01*
X0130386Y0100764D01*
X0130657Y0100686D01*
X0130926Y0100601D01*
X0131193Y0100509D01*
X0131458Y0100410D01*
X0131720Y0100306D01*
X0131979Y0100194D01*
X0132236Y0100077D01*
X0132490Y0099953D01*
X0132740Y0099823D01*
X0132987Y0099687D01*
X0133231Y0099545D01*
X0133471Y0099397D01*
X0133708Y0099243D01*
X0133941Y0099083D01*
X0134170Y0098918D01*
X0134394Y0098747D01*
X0134615Y0098571D01*
X0134830Y0098389D01*
X0135042Y0098202D01*
X0135249Y0098010D01*
X0135451Y0097813D01*
X0135648Y0097611D01*
X0135840Y0097404D01*
X0136027Y0097192D01*
X0136209Y0096977D01*
X0136385Y0096756D01*
X0136556Y0096532D01*
X0136721Y0096303D01*
X0136881Y0096070D01*
X0137035Y0095833D01*
X0137183Y0095593D01*
X0137325Y0095349D01*
X0137461Y0095102D01*
X0137591Y0094852D01*
X0137715Y0094598D01*
X0137832Y0094341D01*
X0137944Y0094082D01*
X0138048Y0093820D01*
X0138147Y0093555D01*
X0138239Y0093288D01*
X0138324Y0093019D01*
X0138402Y0092748D01*
X0138474Y0092475D01*
X0138540Y0092201D01*
X0138598Y0091925D01*
X0138650Y0091647D01*
X0138695Y0091368D01*
X0138733Y0091089D01*
X0138764Y0090808D01*
X0138788Y0090527D01*
X0138805Y0090245D01*
X0138816Y0089963D01*
X0138819Y0089681D01*
X0138816Y0089399D01*
X0138805Y0089117D01*
X0138788Y0088835D01*
X0138764Y0088554D01*
X0138733Y0088273D01*
X0138695Y0087994D01*
X0138650Y0087715D01*
X0138598Y0087437D01*
X0138540Y0087161D01*
X0138474Y0086887D01*
X0138402Y0086614D01*
X0138324Y0086343D01*
X0138239Y0086074D01*
X0138147Y0085807D01*
X0138048Y0085542D01*
X0137944Y0085280D01*
X0137832Y0085021D01*
X0137715Y0084764D01*
X0137591Y0084510D01*
X0137461Y0084260D01*
X0137325Y0084013D01*
X0137183Y0083769D01*
X0137035Y0083529D01*
X0136881Y0083292D01*
X0136721Y0083059D01*
X0136556Y0082830D01*
X0136385Y0082606D01*
X0136209Y0082385D01*
X0136027Y0082170D01*
X0135840Y0081958D01*
X0135648Y0081751D01*
X0135451Y0081549D01*
X0135249Y0081352D01*
X0135042Y0081160D01*
X0134830Y0080973D01*
X0134615Y0080791D01*
X0134394Y0080615D01*
X0134170Y0080444D01*
X0133941Y0080279D01*
X0133708Y0080119D01*
X0133471Y0079965D01*
X0133231Y0079817D01*
X0132987Y0079675D01*
X0132740Y0079539D01*
X0132490Y0079409D01*
X0132236Y0079285D01*
X0131979Y0079168D01*
X0131720Y0079056D01*
X0131458Y0078952D01*
X0131193Y0078853D01*
X0130926Y0078761D01*
X0130657Y0078676D01*
X0130386Y0078598D01*
X0130113Y0078526D01*
X0129839Y0078460D01*
X0129563Y0078402D01*
X0129285Y0078350D01*
X0129006Y0078305D01*
X0128727Y0078267D01*
X0128446Y0078236D01*
X0128165Y0078212D01*
X0127883Y0078195D01*
X0127601Y0078184D01*
X0127319Y0078181D01*
X0127037Y0078184D01*
X0126755Y0078195D01*
X0126473Y0078212D01*
X0126192Y0078236D01*
X0125911Y0078267D01*
X0125632Y0078305D01*
X0125353Y0078350D01*
X0125075Y0078402D01*
X0124799Y0078460D01*
X0124525Y0078526D01*
X0124252Y0078598D01*
X0123981Y0078676D01*
X0123712Y0078761D01*
X0123445Y0078853D01*
X0123180Y0078952D01*
X0122918Y0079056D01*
X0122659Y0079168D01*
X0122402Y0079285D01*
X0122148Y0079409D01*
X0121898Y0079539D01*
X0121651Y0079675D01*
X0121407Y0079817D01*
X0121167Y0079965D01*
X0120930Y0080119D01*
X0120697Y0080279D01*
X0120468Y0080444D01*
X0120244Y0080615D01*
X0120023Y0080791D01*
X0119808Y0080973D01*
X0119596Y0081160D01*
X0119389Y0081352D01*
X0119187Y0081549D01*
X0118990Y0081751D01*
X0118798Y0081958D01*
X0118611Y0082170D01*
X0118429Y0082385D01*
X0118253Y0082606D01*
X0118082Y0082830D01*
X0117917Y0083059D01*
X0117757Y0083292D01*
X0117603Y0083529D01*
X0117455Y0083769D01*
X0117313Y0084013D01*
X0117177Y0084260D01*
X0117047Y0084510D01*
X0116923Y0084764D01*
X0116806Y0085021D01*
X0116694Y0085280D01*
X0116590Y0085542D01*
X0116491Y0085807D01*
X0116399Y0086074D01*
X0116314Y0086343D01*
X0116236Y0086614D01*
X0116164Y0086887D01*
X0116098Y0087161D01*
X0116040Y0087437D01*
X0115988Y0087715D01*
X0115943Y0087994D01*
X0115905Y0088273D01*
X0115874Y0088554D01*
X0115850Y0088835D01*
X0115833Y0089117D01*
X0115822Y0089399D01*
X0115819Y0089681D01*
X0125319Y0101006D02*
X0125319Y0105181D01*
X0129319Y0105181D01*
X0129319Y0101006D01*
X0145775Y0110856D02*
X0145775Y0120856D01*
X0195893Y0120856D01*
X0195893Y0110856D01*
X0145775Y0110856D01*
X0134799Y0126374D02*
X0132437Y0126374D01*
X0132437Y0131886D01*
X0134799Y0131886D01*
X0134799Y0126374D01*
X0118736Y0126650D02*
X0116374Y0126650D01*
X0116374Y0132161D01*
X0118736Y0132161D01*
X0118736Y0126650D01*
X0088618Y0116768D02*
X0088618Y0114799D01*
X0088618Y0116768D02*
X0086650Y0116768D01*
X0063028Y0116768D02*
X0061059Y0116768D01*
X0061059Y0114799D01*
X0058697Y0115587D02*
X0058699Y0115626D01*
X0058705Y0115665D01*
X0058715Y0115703D01*
X0058728Y0115740D01*
X0058745Y0115775D01*
X0058765Y0115809D01*
X0058789Y0115840D01*
X0058816Y0115869D01*
X0058845Y0115895D01*
X0058877Y0115918D01*
X0058911Y0115938D01*
X0058947Y0115954D01*
X0058984Y0115966D01*
X0059023Y0115975D01*
X0059062Y0115980D01*
X0059101Y0115981D01*
X0059140Y0115978D01*
X0059179Y0115971D01*
X0059216Y0115960D01*
X0059253Y0115946D01*
X0059288Y0115928D01*
X0059321Y0115907D01*
X0059352Y0115882D01*
X0059380Y0115855D01*
X0059405Y0115825D01*
X0059427Y0115792D01*
X0059446Y0115758D01*
X0059461Y0115722D01*
X0059473Y0115684D01*
X0059481Y0115646D01*
X0059485Y0115607D01*
X0059485Y0115567D01*
X0059481Y0115528D01*
X0059473Y0115490D01*
X0059461Y0115452D01*
X0059446Y0115416D01*
X0059427Y0115382D01*
X0059405Y0115349D01*
X0059380Y0115319D01*
X0059352Y0115292D01*
X0059321Y0115267D01*
X0059288Y0115246D01*
X0059253Y0115228D01*
X0059216Y0115214D01*
X0059179Y0115203D01*
X0059140Y0115196D01*
X0059101Y0115193D01*
X0059062Y0115194D01*
X0059023Y0115199D01*
X0058984Y0115208D01*
X0058947Y0115220D01*
X0058911Y0115236D01*
X0058877Y0115256D01*
X0058845Y0115279D01*
X0058816Y0115305D01*
X0058789Y0115334D01*
X0058765Y0115365D01*
X0058745Y0115399D01*
X0058728Y0115434D01*
X0058715Y0115471D01*
X0058705Y0115509D01*
X0058699Y0115548D01*
X0058697Y0115587D01*
X0061059Y0091177D02*
X0061059Y0089209D01*
X0063028Y0089209D01*
X0086650Y0089209D02*
X0088618Y0089209D01*
X0088618Y0091177D01*
D13*
X0029721Y0022024D03*
D14*
X0101216Y0086560D02*
X0102216Y0086560D01*
D15*
X0102413Y0081268D02*
X0103233Y0081268D01*
X0103642Y0080858D01*
X0103642Y0080449D01*
X0103233Y0080039D01*
X0103642Y0079629D01*
X0103642Y0079220D01*
X0103233Y0078810D01*
X0102413Y0078810D01*
X0102004Y0079220D01*
X0101105Y0078810D02*
X0100285Y0079629D01*
X0100695Y0079629D02*
X0099466Y0079629D01*
X0099466Y0078810D02*
X0099466Y0081268D01*
X0100695Y0081268D01*
X0101105Y0080858D01*
X0101105Y0080039D01*
X0100695Y0079629D01*
X0102004Y0080858D02*
X0102413Y0081268D01*
X0102823Y0080039D02*
X0103233Y0080039D01*
X0103381Y0066832D02*
X0103381Y0064374D01*
X0102562Y0064374D02*
X0104200Y0064374D01*
X0102562Y0066013D02*
X0103381Y0066832D01*
X0101663Y0066423D02*
X0101663Y0064784D01*
X0101253Y0064374D01*
X0100024Y0064374D01*
X0100024Y0066832D01*
X0101253Y0066832D01*
X0101663Y0066423D01*
X0142678Y0086591D02*
X0142678Y0089049D01*
X0141859Y0089049D02*
X0143498Y0089049D01*
X0144396Y0088230D02*
X0145216Y0089049D01*
X0145216Y0086591D01*
X0146035Y0086591D02*
X0144396Y0086591D01*
D16*
X0098874Y0054224D03*
D17*
X0092624Y0054224D03*
X0118124Y0054224D03*
D18*
X0170512Y0025035D03*
M02*
