G75*
%MOIN*%
%OFA0B0*%
%FSLAX25Y25*%
%IPPOS*%
%LPD*%
%AMOC8*
5,1,8,0,0,1.08239X$1,22.5*
%
%ADD10R,0.02369X0.02762*%
%ADD11R,0.04337X0.04731*%
%ADD12R,0.04731X0.04337*%
%ADD13R,0.13786X0.07880*%
%ADD14R,0.08274X0.02369*%
%ADD15R,0.04534X0.05518*%
%ADD16R,0.22447X0.22447*%
%ADD17R,0.03550X0.01187*%
%ADD18R,0.01187X0.03550*%
%ADD19OC8,0.05200*%
%ADD20C,0.05200*%
%ADD21C,0.03943*%
%ADD22R,0.03943X0.03156*%
%ADD23R,0.03156X0.03943*%
%ADD24C,0.06424*%
%ADD25R,0.06424X0.06424*%
%ADD26C,0.04000*%
%ADD27C,0.09850*%
D10*
X0117555Y0126846D03*
X0117555Y0131965D03*
X0133618Y0131689D03*
X0133618Y0126571D03*
D11*
X0105902Y0120035D03*
X0099209Y0120035D03*
X0099130Y0109839D03*
X0105823Y0109839D03*
X0033500Y0102673D03*
X0033500Y0095980D03*
D12*
X0032713Y0059209D03*
X0039406Y0059209D03*
D13*
X0033421Y0069681D03*
X0033421Y0085035D03*
X0032477Y0048303D03*
X0032477Y0032949D03*
D14*
X0029721Y0007752D03*
X0029721Y0025469D03*
D15*
X0055331Y0063264D03*
X0062614Y0063264D03*
X0062614Y0072319D03*
X0055331Y0072319D03*
D16*
X0074839Y0102988D03*
D17*
X0088618Y0102201D03*
X0088618Y0103776D03*
X0088618Y0105350D03*
X0088618Y0106925D03*
X0088618Y0108500D03*
X0088618Y0110075D03*
X0088618Y0111650D03*
X0088618Y0113224D03*
X0088618Y0100626D03*
X0088618Y0099051D03*
X0088618Y0097476D03*
X0088618Y0095902D03*
X0088618Y0094327D03*
X0088618Y0092752D03*
X0061059Y0092752D03*
X0061059Y0094327D03*
X0061059Y0095902D03*
X0061059Y0097476D03*
X0061059Y0099051D03*
X0061059Y0100626D03*
X0061059Y0102201D03*
X0061059Y0103776D03*
X0061059Y0105350D03*
X0061059Y0106925D03*
X0061059Y0108500D03*
X0061059Y0110075D03*
X0061059Y0111650D03*
X0061059Y0113224D03*
D18*
X0064603Y0116768D03*
X0066177Y0116768D03*
X0067752Y0116768D03*
X0069327Y0116768D03*
X0070902Y0116768D03*
X0072477Y0116768D03*
X0074051Y0116768D03*
X0075626Y0116768D03*
X0077201Y0116768D03*
X0078776Y0116768D03*
X0080351Y0116768D03*
X0081925Y0116768D03*
X0083500Y0116768D03*
X0085075Y0116768D03*
X0085075Y0089209D03*
X0083500Y0089209D03*
X0081925Y0089209D03*
X0080351Y0089209D03*
X0078776Y0089209D03*
X0077201Y0089209D03*
X0075626Y0089209D03*
X0074051Y0089209D03*
X0072477Y0089209D03*
X0070902Y0089209D03*
X0069327Y0089209D03*
X0067752Y0089209D03*
X0066177Y0089209D03*
X0064603Y0089209D03*
D19*
X0096716Y0086560D03*
X0106716Y0086560D03*
X0122319Y0084681D03*
X0132319Y0084681D03*
X0122319Y0094681D03*
D20*
X0122974Y0054224D02*
X0127774Y0054224D01*
X0087774Y0054224D02*
X0082974Y0054224D01*
D21*
X0116181Y0040035D03*
X0116181Y0010035D03*
X0146181Y0010035D03*
X0166181Y0010035D03*
X0166181Y0040035D03*
D22*
X0084704Y0071416D03*
X0084704Y0076534D03*
X0078514Y0076437D03*
X0078514Y0071319D03*
X0072376Y0071537D03*
X0072376Y0076655D03*
X0052595Y0113776D03*
X0052595Y0118894D03*
X0045823Y0119091D03*
X0045823Y0113972D03*
X0059721Y0126571D03*
X0059721Y0131689D03*
X0065862Y0131571D03*
X0065862Y0126453D03*
X0072004Y0126571D03*
X0072004Y0131689D03*
X0091654Y0127913D03*
X0091654Y0122795D03*
D23*
X0084595Y0127043D03*
X0079477Y0127043D03*
X0102067Y0100953D03*
X0107185Y0100953D03*
X0103185Y0094209D03*
X0098067Y0094209D03*
X0052988Y0090980D03*
X0047870Y0090980D03*
X0047634Y0083815D03*
X0052752Y0083815D03*
D24*
X0160834Y0115856D03*
X0170834Y0115856D03*
X0180834Y0115856D03*
X0190834Y0115856D03*
D25*
X0150834Y0115856D03*
D26*
X0125134Y0132756D03*
X0087134Y0132256D03*
X0078634Y0132256D03*
X0068634Y0122256D03*
X0055134Y0132756D03*
X0038382Y0119366D03*
X0030508Y0107555D03*
X0042134Y0101256D03*
X0049634Y0101256D03*
X0055834Y0106356D03*
X0050193Y0107555D03*
X0068134Y0109756D03*
X0080634Y0109756D03*
X0095134Y0101756D03*
X0081634Y0097256D03*
X0069134Y0097256D03*
X0058634Y0086256D03*
X0071634Y0083756D03*
X0078434Y0082956D03*
X0092234Y0075056D03*
X0100234Y0075356D03*
X0078234Y0064956D03*
X0063134Y0075756D03*
X0046256Y0075622D03*
X0046256Y0063311D03*
X0055134Y0059756D03*
X0046256Y0051000D03*
X0109134Y0095756D03*
D27*
X0147434Y0076656D03*
X0147434Y0053256D03*
X0189034Y0053256D03*
X0189034Y0076656D03*
X0189034Y0009056D03*
X0098034Y0009056D03*
M02*
