G75*
%MOIN*%
%OFA0B0*%
%FSLAX25Y25*%
%IPPOS*%
%LPD*%
%AMOC8*
5,1,8,0,0,1.08239X$1,22.5*
%
%ADD10R,0.01969X0.02362*%
%ADD11R,0.03937X0.04331*%
%ADD12R,0.04331X0.03937*%
%ADD13R,0.13386X0.07480*%
%ADD14R,0.07874X0.01969*%
%ADD15R,0.04134X0.05118*%
%ADD16R,0.22047X0.22047*%
%ADD17R,0.03150X0.00787*%
%ADD18R,0.00787X0.03150*%
%ADD19OC8,0.04800*%
%ADD20C,0.04800*%
%ADD21C,0.03543*%
%ADD22R,0.03543X0.02756*%
%ADD23R,0.02756X0.03543*%
%ADD24C,0.06024*%
%ADD25R,0.06024X0.06024*%
%ADD26C,0.01800*%
%ADD27C,0.03600*%
%ADD28C,0.00800*%
%ADD29C,0.02000*%
%ADD30C,0.02800*%
%ADD31C,0.02200*%
%ADD32C,0.09450*%
D10*
X0117555Y0126846D03*
X0117555Y0131965D03*
X0133618Y0131689D03*
X0133618Y0126571D03*
D11*
X0105902Y0120035D03*
X0099209Y0120035D03*
X0099130Y0109839D03*
X0105823Y0109839D03*
X0033500Y0102673D03*
X0033500Y0095980D03*
D12*
X0032713Y0059209D03*
X0039406Y0059209D03*
D13*
X0033421Y0069681D03*
X0033421Y0085035D03*
X0032477Y0048303D03*
X0032477Y0032949D03*
D14*
X0029721Y0007752D03*
X0029721Y0025469D03*
D15*
X0055331Y0063264D03*
X0062614Y0063264D03*
X0062614Y0072319D03*
X0055331Y0072319D03*
D16*
X0074839Y0102988D03*
D17*
X0088618Y0102201D03*
X0088618Y0103776D03*
X0088618Y0105350D03*
X0088618Y0106925D03*
X0088618Y0108500D03*
X0088618Y0110075D03*
X0088618Y0111650D03*
X0088618Y0113224D03*
X0088618Y0100626D03*
X0088618Y0099051D03*
X0088618Y0097476D03*
X0088618Y0095902D03*
X0088618Y0094327D03*
X0088618Y0092752D03*
X0061059Y0092752D03*
X0061059Y0094327D03*
X0061059Y0095902D03*
X0061059Y0097476D03*
X0061059Y0099051D03*
X0061059Y0100626D03*
X0061059Y0102201D03*
X0061059Y0103776D03*
X0061059Y0105350D03*
X0061059Y0106925D03*
X0061059Y0108500D03*
X0061059Y0110075D03*
X0061059Y0111650D03*
X0061059Y0113224D03*
D18*
X0064603Y0116768D03*
X0066177Y0116768D03*
X0067752Y0116768D03*
X0069327Y0116768D03*
X0070902Y0116768D03*
X0072477Y0116768D03*
X0074051Y0116768D03*
X0075626Y0116768D03*
X0077201Y0116768D03*
X0078776Y0116768D03*
X0080351Y0116768D03*
X0081925Y0116768D03*
X0083500Y0116768D03*
X0085075Y0116768D03*
X0085075Y0089209D03*
X0083500Y0089209D03*
X0081925Y0089209D03*
X0080351Y0089209D03*
X0078776Y0089209D03*
X0077201Y0089209D03*
X0075626Y0089209D03*
X0074051Y0089209D03*
X0072477Y0089209D03*
X0070902Y0089209D03*
X0069327Y0089209D03*
X0067752Y0089209D03*
X0066177Y0089209D03*
X0064603Y0089209D03*
D19*
X0096716Y0086560D03*
X0106716Y0086560D03*
X0122319Y0084681D03*
X0132319Y0084681D03*
X0122319Y0094681D03*
D20*
X0122974Y0054224D02*
X0127774Y0054224D01*
X0087774Y0054224D02*
X0082974Y0054224D01*
D21*
X0116181Y0040035D03*
X0116181Y0010035D03*
X0146181Y0010035D03*
X0166181Y0010035D03*
X0166181Y0040035D03*
D22*
X0084704Y0071416D03*
X0084704Y0076534D03*
X0078514Y0076437D03*
X0078514Y0071319D03*
X0072376Y0071537D03*
X0072376Y0076655D03*
X0052595Y0113776D03*
X0052595Y0118894D03*
X0045823Y0119091D03*
X0045823Y0113972D03*
X0059721Y0126571D03*
X0059721Y0131689D03*
X0065862Y0131571D03*
X0065862Y0126453D03*
X0072004Y0126571D03*
X0072004Y0131689D03*
X0091654Y0127913D03*
X0091654Y0122795D03*
D23*
X0084595Y0127043D03*
X0079477Y0127043D03*
X0102067Y0100953D03*
X0107185Y0100953D03*
X0103185Y0094209D03*
X0098067Y0094209D03*
X0052988Y0090980D03*
X0047870Y0090980D03*
X0047634Y0083815D03*
X0052752Y0083815D03*
D24*
X0160834Y0115856D03*
X0170834Y0115856D03*
X0180834Y0115856D03*
X0190834Y0115856D03*
D25*
X0150834Y0115856D03*
D26*
X0133618Y0131689D02*
X0126201Y0131689D01*
X0125134Y0132756D01*
X0124343Y0131965D01*
X0117555Y0131965D01*
X0091654Y0127913D02*
X0085465Y0127913D01*
X0084595Y0127043D01*
X0087134Y0129583D01*
X0087134Y0132256D01*
X0079477Y0131413D02*
X0079477Y0127043D01*
X0079477Y0131413D02*
X0078634Y0132256D01*
X0078067Y0131689D01*
X0072004Y0131689D01*
X0071886Y0131571D01*
X0065862Y0131571D01*
X0065862Y0126453D02*
X0065862Y0125028D01*
X0068634Y0122256D01*
X0072004Y0125626D01*
X0072004Y0126571D01*
X0072280Y0126295D01*
X0059721Y0131689D02*
X0056201Y0131689D01*
X0055134Y0132756D01*
X0052595Y0118894D02*
X0046020Y0118894D01*
X0045823Y0119091D01*
X0045547Y0119366D01*
X0038382Y0119366D01*
X0045823Y0113972D02*
X0045823Y0111925D01*
X0050193Y0107555D01*
X0052595Y0109957D01*
X0052595Y0113776D01*
X0033500Y0104563D02*
X0033500Y0102673D01*
X0033500Y0104563D02*
X0030508Y0107555D01*
X0047634Y0090744D02*
X0047870Y0090980D01*
X0047634Y0090744D02*
X0047634Y0083815D01*
X0046256Y0082437D01*
X0046256Y0075622D01*
X0052752Y0083815D02*
X0056193Y0083815D01*
X0058634Y0086256D01*
X0053910Y0090980D01*
X0052988Y0090980D01*
X0063134Y0075756D02*
X0062614Y0075236D01*
X0062614Y0072319D01*
X0055331Y0063264D02*
X0055331Y0059953D01*
X0055134Y0059756D01*
X0046256Y0063311D02*
X0042154Y0059209D01*
X0039406Y0059209D01*
X0095134Y0101756D02*
X0098067Y0098823D01*
X0098067Y0094209D01*
X0103185Y0094209D02*
X0107587Y0094209D01*
X0109134Y0095756D01*
X0109134Y0099004D01*
X0107185Y0100953D01*
X0102067Y0100953D02*
X0095937Y0100953D01*
X0095134Y0101756D01*
D27*
X0095134Y0101756D03*
X0081634Y0097256D03*
X0069134Y0097256D03*
X0058634Y0086256D03*
X0071634Y0083756D03*
X0078434Y0082956D03*
X0092234Y0075056D03*
X0100234Y0075356D03*
X0078234Y0064956D03*
X0063134Y0075756D03*
X0046256Y0075622D03*
X0046256Y0063311D03*
X0055134Y0059756D03*
X0046256Y0051000D03*
X0109134Y0095756D03*
X0080634Y0109756D03*
X0068134Y0109756D03*
X0055834Y0106356D03*
X0050193Y0107555D03*
X0049634Y0101256D03*
X0042134Y0101256D03*
X0030508Y0107555D03*
X0038382Y0119366D03*
X0055134Y0132756D03*
X0068634Y0122256D03*
X0078634Y0132256D03*
X0087134Y0132256D03*
X0125134Y0132756D03*
D28*
X0099209Y0120035D02*
X0093500Y0114327D01*
X0093500Y0111492D01*
X0092083Y0110075D01*
X0088618Y0110075D01*
X0088618Y0108500D02*
X0097792Y0108500D01*
X0099130Y0109839D01*
X0093114Y0103776D02*
X0095134Y0101756D01*
X0093114Y0103776D02*
X0088618Y0103776D01*
X0089524Y0092752D02*
X0090524Y0092752D01*
X0096716Y0086560D01*
X0095234Y0080356D02*
X0090734Y0080356D01*
X0083500Y0087590D01*
X0083500Y0089209D01*
X0081925Y0089209D02*
X0081925Y0086365D01*
X0092234Y0076056D01*
X0092234Y0075056D01*
X0095234Y0080356D02*
X0100234Y0075356D01*
X0078434Y0082956D02*
X0077201Y0084189D01*
X0077201Y0089209D01*
X0071634Y0083756D02*
X0069327Y0086063D01*
X0069327Y0089209D01*
X0067752Y0089209D02*
X0067752Y0068402D01*
X0062614Y0063264D01*
X0055331Y0072319D02*
X0055331Y0077260D01*
X0058067Y0079996D01*
X0062004Y0079996D01*
X0066177Y0084169D01*
X0066177Y0089209D01*
X0064603Y0089209D02*
X0061587Y0089209D01*
X0058634Y0086256D01*
X0052988Y0090980D02*
X0054760Y0092752D01*
X0061059Y0092752D01*
X0061059Y0095902D02*
X0033579Y0095902D01*
X0033500Y0095980D01*
X0050193Y0106197D02*
X0050193Y0107555D01*
X0050193Y0106197D02*
X0057339Y0099051D01*
X0061059Y0099051D01*
X0061059Y0100626D02*
X0072477Y0100626D01*
X0072477Y0100598D01*
X0069134Y0097256D01*
X0072477Y0100626D02*
X0074839Y0102988D01*
X0061059Y0108500D02*
X0057978Y0108500D01*
X0055834Y0106356D01*
X0053146Y0113224D02*
X0052595Y0113776D01*
X0053146Y0113224D02*
X0061059Y0113224D01*
X0064603Y0116768D02*
X0064603Y0118287D01*
X0059721Y0123169D01*
X0059721Y0126571D01*
X0066177Y0119799D02*
X0068634Y0122256D01*
X0066177Y0119799D02*
X0066177Y0116768D01*
X0080351Y0116768D02*
X0080351Y0126169D01*
X0079477Y0127043D01*
X0085173Y0122795D02*
X0091654Y0122795D01*
X0085173Y0122795D02*
X0081925Y0119547D01*
X0081925Y0116768D01*
D29*
X0078434Y0082956D02*
X0078434Y0082804D01*
X0084704Y0076534D01*
X0084704Y0071416D02*
X0078244Y0064956D01*
X0078234Y0064956D01*
X0078234Y0071039D01*
X0078514Y0071319D01*
X0078514Y0076437D02*
X0078434Y0076517D01*
X0078434Y0082956D01*
X0072376Y0083014D02*
X0071634Y0083756D01*
X0072376Y0083014D02*
X0072376Y0076655D01*
X0072376Y0071537D02*
X0078234Y0065679D01*
X0078234Y0064956D01*
D30*
X0085374Y0054224D02*
X0099563Y0040035D01*
X0116181Y0040035D01*
X0125374Y0054224D02*
X0139563Y0040035D01*
X0166181Y0040035D01*
X0147434Y0053256D02*
X0189034Y0053256D01*
X0189034Y0076656D02*
X0147434Y0076656D01*
X0132319Y0084681D02*
X0132319Y0061169D01*
X0125374Y0054224D01*
X0122319Y0084681D02*
X0122240Y0084760D01*
X0106716Y0086560D01*
X0033421Y0085035D02*
X0033421Y0095902D01*
X0033500Y0095980D01*
X0033421Y0069681D02*
X0032713Y0068972D01*
X0032713Y0059209D01*
X0032477Y0058972D01*
X0032477Y0048303D01*
X0098034Y0009056D02*
X0099014Y0010035D01*
X0116181Y0010035D01*
X0166181Y0010035D02*
X0188055Y0010035D01*
X0189034Y0009056D01*
D31*
X0116886Y0109839D02*
X0105823Y0109839D01*
X0116886Y0109839D02*
X0133618Y0126571D01*
X0117555Y0126846D02*
X0110744Y0120035D01*
X0105902Y0120035D01*
X0032477Y0032949D02*
X0029721Y0030193D01*
X0029721Y0025469D01*
D32*
X0098034Y0009056D03*
X0147434Y0053256D03*
X0147434Y0076656D03*
X0189034Y0076656D03*
X0189034Y0053256D03*
X0189034Y0009056D03*
M02*
