G75*
%MOIN*%
%OFA0B0*%
%FSLAX25Y25*%
%IPPOS*%
%LPD*%
%AMOC8*
5,1,8,0,0,1.08239X$1,22.5*
%
%ADD10OC8,0.04800*%
%ADD11C,0.04800*%
%ADD12C,0.03543*%
%ADD13C,0.06024*%
%ADD14R,0.06024X0.06024*%
%ADD15C,0.03600*%
%ADD16C,0.00800*%
%ADD17C,0.09450*%
D10*
X0093316Y0085760D03*
X0103316Y0085760D03*
X0122319Y0084681D03*
X0132319Y0084681D03*
X0122319Y0094681D03*
D11*
X0122974Y0054224D02*
X0127774Y0054224D01*
X0087774Y0054224D02*
X0082974Y0054224D01*
D12*
X0116181Y0040035D03*
X0116181Y0010035D03*
X0146181Y0010035D03*
X0166181Y0010035D03*
X0166181Y0040035D03*
D13*
X0170834Y0115856D03*
X0160834Y0115856D03*
X0180834Y0115856D03*
X0190834Y0115856D03*
D14*
X0150834Y0115856D03*
D15*
X0046256Y0051000D03*
X0055134Y0059756D03*
X0046256Y0063311D03*
X0046256Y0075622D03*
X0058634Y0086256D03*
X0071634Y0083756D03*
X0078434Y0082956D03*
X0092234Y0075056D03*
X0100234Y0075356D03*
X0078234Y0064956D03*
X0063134Y0075756D03*
X0069134Y0097256D03*
X0081634Y0097256D03*
X0096134Y0103156D03*
X0080634Y0109756D03*
X0068134Y0109756D03*
X0055834Y0106356D03*
X0050193Y0107555D03*
X0049634Y0101256D03*
X0042134Y0101256D03*
X0030508Y0107555D03*
X0038382Y0119366D03*
X0055134Y0132756D03*
X0068634Y0122256D03*
X0078634Y0132256D03*
X0087134Y0132256D03*
X0125134Y0132756D03*
X0111434Y0096056D03*
D16*
X0116234Y0099056D02*
X0122934Y0105756D01*
X0150734Y0105756D01*
X0160834Y0115856D01*
X0164234Y0122456D02*
X0105634Y0122456D01*
X0087434Y0104256D01*
X0057934Y0104256D01*
X0055834Y0106356D01*
X0092234Y0075056D02*
X0098334Y0081156D01*
X0109334Y0081156D01*
X0113834Y0085656D01*
X0113834Y0103356D01*
X0126334Y0115856D01*
X0150834Y0115856D01*
X0164234Y0122456D02*
X0170834Y0115856D01*
X0116234Y0099056D02*
X0116234Y0082656D01*
X0108934Y0075356D01*
X0100234Y0075356D01*
D17*
X0147434Y0076656D03*
X0147434Y0053256D03*
X0189034Y0053256D03*
X0189034Y0076656D03*
X0189034Y0009056D03*
X0098034Y0009056D03*
M02*
