%
M48
M72
T01C0.0236
T02C0.0240
T03C0.0320
T04C0.0402
T05C0.0630
%
T01
X11618Y1004
X14618Y1004
X16618Y1004
X16618Y4004
X11618Y4004
T02
X4626Y5100
X5513Y5976
X4626Y6331
X4626Y7562
X5863Y8626
X7163Y8376
X7843Y8296
X9223Y7506
X10023Y7536
X7823Y6496
X6313Y7576
X6913Y9726
X8163Y9726
X9513Y10176
X10913Y9576
X8063Y10976
X6813Y10976
X5583Y10636
X5019Y10756
X4963Y10126
X4213Y10126
X3051Y10756
X3838Y11937
X5513Y13276
X6863Y12226
X7863Y13226
X8713Y13226
X12513Y13276
T03
X12232Y9468
X12232Y8468
X13232Y8468
X10672Y8656
X9672Y8656
X8537Y5422
X12537Y5422
T04
X15083Y11586
X16083Y11586
X17083Y11586
X18083Y11586
X19083Y11586
T05
X18903Y7666
X18903Y5326
X14743Y5326
X14743Y7666
X18903Y906
X9803Y906
M30
