G75*
%MOIN*%
%OFA0B0*%
%FSLAX25Y25*%
%IPPOS*%
%LPD*%
%AMOC8*
5,1,8,0,0,1.08239X$1,22.5*
%
%ADD10C,0.04800*%
%ADD11C,0.03543*%
%ADD12C,0.06024*%
%ADD13C,0.00800*%
%ADD14C,0.03600*%
%ADD15C,0.09450*%
D10*
X0085374Y0054224D03*
X0093316Y0085760D03*
X0103316Y0085760D03*
X0122319Y0084681D03*
X0132319Y0084681D03*
X0122319Y0094681D03*
X0125374Y0054224D03*
D11*
X0116181Y0040035D03*
X0116181Y0010035D03*
X0146181Y0010035D03*
X0166181Y0010035D03*
X0166181Y0040035D03*
D12*
X0170834Y0115856D03*
X0160834Y0115856D03*
X0150834Y0115856D03*
X0180834Y0115856D03*
X0190834Y0115856D03*
D13*
X0043634Y0089839D02*
X0043634Y0044563D01*
X0091532Y0044563D01*
X0091532Y0072122D01*
X0126571Y0072122D01*
X0126571Y0093776D01*
X0197831Y0093776D01*
X0197831Y0137083D01*
X0024603Y0137083D01*
X0024603Y0099681D01*
X0065941Y0099681D01*
X0065941Y0089839D01*
X0043634Y0089839D01*
X0043634Y0089092D02*
X0126571Y0089092D01*
X0126571Y0088294D02*
X0105025Y0088294D01*
X0105015Y0088303D02*
X0103913Y0088760D01*
X0102719Y0088760D01*
X0101617Y0088303D01*
X0100773Y0087459D01*
X0100316Y0086357D01*
X0100316Y0085163D01*
X0100773Y0084060D01*
X0101617Y0083217D01*
X0102719Y0082760D01*
X0103913Y0082760D01*
X0105015Y0083217D01*
X0105859Y0084060D01*
X0106316Y0085163D01*
X0106316Y0086357D01*
X0105859Y0087459D01*
X0105015Y0088303D01*
X0105823Y0087495D02*
X0121273Y0087495D01*
X0121722Y0087681D02*
X0120620Y0087224D01*
X0119776Y0086380D01*
X0119319Y0085278D01*
X0119319Y0084084D01*
X0119776Y0082982D01*
X0120620Y0082138D01*
X0121722Y0081681D01*
X0122916Y0081681D01*
X0124018Y0082138D01*
X0124862Y0082982D01*
X0125319Y0084084D01*
X0125319Y0085278D01*
X0124862Y0086380D01*
X0124018Y0087224D01*
X0122916Y0087681D01*
X0121722Y0087681D01*
X0123365Y0087495D02*
X0126571Y0087495D01*
X0126571Y0086697D02*
X0124546Y0086697D01*
X0125062Y0085898D02*
X0126571Y0085898D01*
X0126571Y0085100D02*
X0125319Y0085100D01*
X0125319Y0084301D02*
X0126571Y0084301D01*
X0126571Y0083503D02*
X0125078Y0083503D01*
X0124585Y0082704D02*
X0126571Y0082704D01*
X0126571Y0081906D02*
X0123458Y0081906D01*
X0121180Y0081906D02*
X0080597Y0081906D01*
X0080469Y0081596D02*
X0080834Y0082479D01*
X0080834Y0083433D01*
X0080469Y0084315D01*
X0079794Y0084991D01*
X0078911Y0085356D01*
X0077957Y0085356D01*
X0077075Y0084991D01*
X0076399Y0084315D01*
X0076034Y0083433D01*
X0076034Y0082479D01*
X0076399Y0081596D01*
X0077075Y0080921D01*
X0077957Y0080556D01*
X0078911Y0080556D01*
X0079794Y0080921D01*
X0080469Y0081596D01*
X0079979Y0081107D02*
X0126571Y0081107D01*
X0126571Y0080309D02*
X0043634Y0080309D01*
X0043634Y0081107D02*
X0076889Y0081107D01*
X0076271Y0081906D02*
X0073178Y0081906D01*
X0072994Y0081721D02*
X0073669Y0082396D01*
X0074034Y0083279D01*
X0074034Y0084233D01*
X0073669Y0085115D01*
X0072994Y0085791D01*
X0072111Y0086156D01*
X0071157Y0086156D01*
X0070275Y0085791D01*
X0069599Y0085115D01*
X0069234Y0084233D01*
X0069234Y0083279D01*
X0069599Y0082396D01*
X0070275Y0081721D01*
X0071157Y0081356D01*
X0072111Y0081356D01*
X0072994Y0081721D01*
X0073796Y0082704D02*
X0076034Y0082704D01*
X0076063Y0083503D02*
X0074034Y0083503D01*
X0074006Y0084301D02*
X0076393Y0084301D01*
X0077338Y0085100D02*
X0073675Y0085100D01*
X0072734Y0085898D02*
X0090316Y0085898D01*
X0090316Y0086357D02*
X0090316Y0085163D01*
X0090773Y0084060D01*
X0091617Y0083217D01*
X0092719Y0082760D01*
X0093913Y0082760D01*
X0095015Y0083217D01*
X0095859Y0084060D01*
X0096316Y0085163D01*
X0096316Y0086357D01*
X0095859Y0087459D01*
X0095015Y0088303D01*
X0093913Y0088760D01*
X0092719Y0088760D01*
X0091617Y0088303D01*
X0090773Y0087459D01*
X0090316Y0086357D01*
X0090457Y0086697D02*
X0061034Y0086697D01*
X0061034Y0086733D02*
X0060669Y0087615D01*
X0059994Y0088291D01*
X0059111Y0088656D01*
X0058157Y0088656D01*
X0057275Y0088291D01*
X0056599Y0087615D01*
X0056234Y0086733D01*
X0056234Y0085779D01*
X0056599Y0084896D01*
X0057275Y0084221D01*
X0058157Y0083856D01*
X0059111Y0083856D01*
X0059994Y0084221D01*
X0060669Y0084896D01*
X0061034Y0085779D01*
X0061034Y0086733D01*
X0060718Y0087495D02*
X0090809Y0087495D01*
X0091607Y0088294D02*
X0059986Y0088294D01*
X0057282Y0088294D02*
X0043634Y0088294D01*
X0043634Y0087495D02*
X0056550Y0087495D01*
X0056234Y0086697D02*
X0043634Y0086697D01*
X0043634Y0085898D02*
X0056234Y0085898D01*
X0056515Y0085100D02*
X0043634Y0085100D01*
X0043634Y0084301D02*
X0057195Y0084301D01*
X0060073Y0084301D02*
X0069262Y0084301D01*
X0069234Y0083503D02*
X0043634Y0083503D01*
X0043634Y0082704D02*
X0069472Y0082704D01*
X0070090Y0081906D02*
X0043634Y0081906D01*
X0043634Y0079510D02*
X0126571Y0079510D01*
X0126571Y0078712D02*
X0043634Y0078712D01*
X0043634Y0077913D02*
X0126571Y0077913D01*
X0126571Y0077114D02*
X0101870Y0077114D01*
X0101594Y0077391D02*
X0100711Y0077756D01*
X0099757Y0077756D01*
X0098875Y0077391D01*
X0098199Y0076715D01*
X0097834Y0075833D01*
X0097834Y0074879D01*
X0098199Y0073996D01*
X0098875Y0073321D01*
X0099757Y0072956D01*
X0100711Y0072956D01*
X0101594Y0073321D01*
X0102269Y0073996D01*
X0102634Y0074879D01*
X0102634Y0075833D01*
X0102269Y0076715D01*
X0101594Y0077391D01*
X0102434Y0076316D02*
X0126571Y0076316D01*
X0126571Y0075517D02*
X0102634Y0075517D01*
X0102568Y0074719D02*
X0126571Y0074719D01*
X0126571Y0073920D02*
X0102193Y0073920D01*
X0101112Y0073122D02*
X0126571Y0073122D01*
X0126571Y0072323D02*
X0063941Y0072323D01*
X0064060Y0072205D02*
X0063386Y0072878D01*
X0054559Y0072878D01*
X0053886Y0072205D01*
X0053886Y0063378D01*
X0054559Y0062704D01*
X0055512Y0062704D01*
X0063386Y0062704D01*
X0064060Y0063378D01*
X0064060Y0072205D01*
X0064060Y0071525D02*
X0091532Y0071525D01*
X0091532Y0070726D02*
X0064060Y0070726D01*
X0064060Y0069928D02*
X0091532Y0069928D01*
X0091532Y0069129D02*
X0064060Y0069129D01*
X0064060Y0068331D02*
X0091532Y0068331D01*
X0091532Y0067532D02*
X0064060Y0067532D01*
X0064060Y0066734D02*
X0091532Y0066734D01*
X0091532Y0065935D02*
X0064060Y0065935D01*
X0064060Y0065137D02*
X0091532Y0065137D01*
X0091532Y0064338D02*
X0064060Y0064338D01*
X0064060Y0063540D02*
X0091532Y0063540D01*
X0091532Y0062741D02*
X0063423Y0062741D01*
X0054522Y0062741D02*
X0043634Y0062741D01*
X0043634Y0061943D02*
X0091532Y0061943D01*
X0091532Y0061144D02*
X0043634Y0061144D01*
X0043634Y0060346D02*
X0091532Y0060346D01*
X0091532Y0059547D02*
X0043634Y0059547D01*
X0043634Y0058749D02*
X0091532Y0058749D01*
X0091532Y0057950D02*
X0043634Y0057950D01*
X0043634Y0057152D02*
X0084602Y0057152D01*
X0084777Y0057224D02*
X0083675Y0056768D01*
X0082831Y0055924D01*
X0082374Y0054821D01*
X0082374Y0053628D01*
X0082831Y0052525D01*
X0083675Y0051681D01*
X0084777Y0051224D01*
X0085971Y0051224D01*
X0087074Y0051681D01*
X0087917Y0052525D01*
X0088374Y0053628D01*
X0088374Y0054821D01*
X0087917Y0055924D01*
X0087074Y0056768D01*
X0085971Y0057224D01*
X0084777Y0057224D01*
X0086146Y0057152D02*
X0091532Y0057152D01*
X0091532Y0056353D02*
X0087488Y0056353D01*
X0088070Y0055555D02*
X0091532Y0055555D01*
X0091532Y0054756D02*
X0088374Y0054756D01*
X0088374Y0053958D02*
X0091532Y0053958D01*
X0091532Y0053159D02*
X0088180Y0053159D01*
X0087753Y0052361D02*
X0091532Y0052361D01*
X0091532Y0051562D02*
X0086786Y0051562D01*
X0083962Y0051562D02*
X0043634Y0051562D01*
X0043634Y0050764D02*
X0091532Y0050764D01*
X0091532Y0049965D02*
X0043634Y0049965D01*
X0043634Y0049167D02*
X0091532Y0049167D01*
X0091532Y0048368D02*
X0043634Y0048368D01*
X0043634Y0047570D02*
X0091532Y0047570D01*
X0091532Y0046771D02*
X0043634Y0046771D01*
X0043634Y0045973D02*
X0091532Y0045973D01*
X0091532Y0045174D02*
X0043634Y0045174D01*
X0043634Y0052361D02*
X0082995Y0052361D01*
X0082568Y0053159D02*
X0043634Y0053159D01*
X0043634Y0053958D02*
X0082374Y0053958D01*
X0082374Y0054756D02*
X0043634Y0054756D01*
X0043634Y0055555D02*
X0082678Y0055555D01*
X0083260Y0056353D02*
X0043634Y0056353D01*
X0043634Y0063540D02*
X0053886Y0063540D01*
X0053886Y0064338D02*
X0043634Y0064338D01*
X0043634Y0065137D02*
X0053886Y0065137D01*
X0053886Y0065935D02*
X0043634Y0065935D01*
X0043634Y0066734D02*
X0053886Y0066734D01*
X0053886Y0067532D02*
X0043634Y0067532D01*
X0043634Y0068331D02*
X0053886Y0068331D01*
X0053886Y0069129D02*
X0043634Y0069129D01*
X0043634Y0069928D02*
X0053886Y0069928D01*
X0053886Y0070726D02*
X0043634Y0070726D01*
X0043634Y0071525D02*
X0053886Y0071525D01*
X0054004Y0072323D02*
X0043634Y0072323D01*
X0043634Y0073122D02*
X0090774Y0073122D01*
X0090875Y0073021D02*
X0091757Y0072656D01*
X0092711Y0072656D01*
X0093594Y0073021D01*
X0094269Y0073696D01*
X0094634Y0074579D01*
X0094634Y0075533D01*
X0094269Y0076415D01*
X0093594Y0077091D01*
X0092711Y0077456D01*
X0091757Y0077456D01*
X0090875Y0077091D01*
X0090199Y0076415D01*
X0089834Y0075533D01*
X0089834Y0074579D01*
X0090199Y0073696D01*
X0090875Y0073021D01*
X0090107Y0073920D02*
X0043634Y0073920D01*
X0043634Y0074719D02*
X0089834Y0074719D01*
X0089834Y0075517D02*
X0043634Y0075517D01*
X0043634Y0076316D02*
X0090158Y0076316D01*
X0090932Y0077114D02*
X0043634Y0077114D01*
X0060753Y0085100D02*
X0069593Y0085100D01*
X0070534Y0085898D02*
X0061034Y0085898D01*
X0065941Y0089891D02*
X0126571Y0089891D01*
X0126571Y0090689D02*
X0065941Y0090689D01*
X0065941Y0091488D02*
X0120259Y0091488D01*
X0120519Y0091314D02*
X0121211Y0091027D01*
X0121919Y0090886D01*
X0121919Y0094281D01*
X0122719Y0094281D01*
X0122719Y0090886D01*
X0123427Y0091027D01*
X0124119Y0091314D01*
X0124741Y0091729D01*
X0125271Y0092259D01*
X0125687Y0092881D01*
X0125973Y0093573D01*
X0126114Y0094281D01*
X0122719Y0094281D01*
X0122719Y0095081D01*
X0126114Y0095081D01*
X0125973Y0095790D01*
X0125687Y0096481D01*
X0125271Y0097103D01*
X0124741Y0097633D01*
X0124119Y0098049D01*
X0123427Y0098335D01*
X0122719Y0098476D01*
X0122719Y0095081D01*
X0121919Y0095081D01*
X0121919Y0094281D01*
X0118524Y0094281D01*
X0118665Y0093573D01*
X0118952Y0092881D01*
X0119367Y0092259D01*
X0119897Y0091729D01*
X0120519Y0091314D01*
X0121919Y0091488D02*
X0122719Y0091488D01*
X0122719Y0092286D02*
X0121919Y0092286D01*
X0121919Y0093085D02*
X0122719Y0093085D01*
X0122719Y0093883D02*
X0121919Y0093883D01*
X0121919Y0094682D02*
X0065941Y0094682D01*
X0065941Y0095480D02*
X0118604Y0095480D01*
X0118665Y0095790D02*
X0118524Y0095081D01*
X0121919Y0095081D01*
X0121919Y0098476D01*
X0121211Y0098335D01*
X0120519Y0098049D01*
X0119897Y0097633D01*
X0119367Y0097103D01*
X0118952Y0096481D01*
X0118665Y0095790D01*
X0118868Y0096279D02*
X0065941Y0096279D01*
X0065941Y0097077D02*
X0119350Y0097077D01*
X0120260Y0097876D02*
X0065941Y0097876D01*
X0065941Y0098674D02*
X0197831Y0098674D01*
X0197831Y0097876D02*
X0124378Y0097876D01*
X0125288Y0097077D02*
X0197831Y0097077D01*
X0197831Y0096279D02*
X0125770Y0096279D01*
X0126035Y0095480D02*
X0197831Y0095480D01*
X0197831Y0094682D02*
X0122719Y0094682D01*
X0122719Y0095480D02*
X0121919Y0095480D01*
X0121919Y0096279D02*
X0122719Y0096279D01*
X0122719Y0097077D02*
X0121919Y0097077D01*
X0121919Y0097876D02*
X0122719Y0097876D01*
X0126035Y0093883D02*
X0197831Y0093883D01*
X0197831Y0099473D02*
X0065941Y0099473D01*
X0065941Y0093883D02*
X0118603Y0093883D01*
X0118867Y0093085D02*
X0065941Y0093085D01*
X0065941Y0092286D02*
X0119349Y0092286D01*
X0124380Y0091488D02*
X0126571Y0091488D01*
X0126571Y0092286D02*
X0125289Y0092286D01*
X0125771Y0093085D02*
X0126571Y0093085D01*
X0120092Y0086697D02*
X0106175Y0086697D01*
X0106316Y0085898D02*
X0119576Y0085898D01*
X0119319Y0085100D02*
X0106290Y0085100D01*
X0105959Y0084301D02*
X0119319Y0084301D01*
X0119560Y0083503D02*
X0105301Y0083503D01*
X0101331Y0083503D02*
X0095301Y0083503D01*
X0095959Y0084301D02*
X0100673Y0084301D01*
X0100342Y0085100D02*
X0096290Y0085100D01*
X0096316Y0085898D02*
X0100316Y0085898D01*
X0100457Y0086697D02*
X0096175Y0086697D01*
X0095823Y0087495D02*
X0100809Y0087495D01*
X0101607Y0088294D02*
X0095025Y0088294D01*
X0090342Y0085100D02*
X0079530Y0085100D01*
X0080475Y0084301D02*
X0090673Y0084301D01*
X0091331Y0083503D02*
X0080805Y0083503D01*
X0080834Y0082704D02*
X0120053Y0082704D01*
X0098598Y0077114D02*
X0093536Y0077114D01*
X0094310Y0076316D02*
X0098034Y0076316D01*
X0097834Y0075517D02*
X0094634Y0075517D01*
X0094634Y0074719D02*
X0097900Y0074719D01*
X0098275Y0073920D02*
X0094361Y0073920D01*
X0093694Y0073122D02*
X0099356Y0073122D01*
X0096611Y0100756D02*
X0095657Y0100756D01*
X0094775Y0101121D01*
X0094099Y0101796D01*
X0093734Y0102679D01*
X0093734Y0103633D01*
X0094099Y0104515D01*
X0094775Y0105191D01*
X0095657Y0105556D01*
X0096611Y0105556D01*
X0097494Y0105191D01*
X0098169Y0104515D01*
X0098534Y0103633D01*
X0098534Y0102679D01*
X0098169Y0101796D01*
X0097494Y0101121D01*
X0096611Y0100756D01*
X0097369Y0101070D02*
X0197831Y0101070D01*
X0197831Y0101868D02*
X0098198Y0101868D01*
X0098529Y0102667D02*
X0197831Y0102667D01*
X0197831Y0103465D02*
X0098534Y0103465D01*
X0098273Y0104264D02*
X0197831Y0104264D01*
X0197831Y0105062D02*
X0097622Y0105062D01*
X0094646Y0105062D02*
X0057896Y0105062D01*
X0057869Y0104996D02*
X0058234Y0105879D01*
X0058234Y0106833D01*
X0057869Y0107715D01*
X0057194Y0108391D01*
X0056311Y0108756D01*
X0055357Y0108756D01*
X0054475Y0108391D01*
X0053799Y0107715D01*
X0053434Y0106833D01*
X0053434Y0105879D01*
X0053799Y0104996D01*
X0054475Y0104321D01*
X0055357Y0103956D01*
X0056311Y0103956D01*
X0057194Y0104321D01*
X0057869Y0104996D01*
X0058227Y0105861D02*
X0197831Y0105861D01*
X0197831Y0106659D02*
X0058234Y0106659D01*
X0057975Y0107458D02*
X0197831Y0107458D01*
X0197831Y0108256D02*
X0057328Y0108256D01*
X0054340Y0108256D02*
X0052500Y0108256D01*
X0052593Y0108033D02*
X0052228Y0108915D01*
X0051553Y0109590D01*
X0050670Y0109955D01*
X0049716Y0109955D01*
X0048834Y0109590D01*
X0048158Y0108915D01*
X0047793Y0108033D01*
X0047793Y0107078D01*
X0048158Y0106196D01*
X0048834Y0105520D01*
X0049716Y0105155D01*
X0050670Y0105155D01*
X0051553Y0105520D01*
X0052228Y0106196D01*
X0052593Y0107078D01*
X0052593Y0108033D01*
X0052593Y0107458D02*
X0053693Y0107458D01*
X0053434Y0106659D02*
X0052420Y0106659D01*
X0051893Y0105861D02*
X0053441Y0105861D01*
X0053772Y0105062D02*
X0024603Y0105062D01*
X0024603Y0104264D02*
X0054613Y0104264D01*
X0057055Y0104264D02*
X0093995Y0104264D01*
X0093734Y0103465D02*
X0024603Y0103465D01*
X0024603Y0102667D02*
X0093739Y0102667D01*
X0094070Y0101868D02*
X0024603Y0101868D01*
X0024603Y0101070D02*
X0094899Y0101070D01*
X0079994Y0130221D02*
X0080669Y0130896D01*
X0081034Y0131779D01*
X0081034Y0132733D01*
X0080669Y0133615D01*
X0079994Y0134291D01*
X0079111Y0134656D01*
X0078157Y0134656D01*
X0077275Y0134291D01*
X0076599Y0133615D01*
X0076234Y0132733D01*
X0076234Y0131779D01*
X0076599Y0130896D01*
X0077275Y0130221D01*
X0078157Y0129856D01*
X0079111Y0129856D01*
X0079994Y0130221D01*
X0080387Y0130615D02*
X0124032Y0130615D01*
X0123775Y0130721D02*
X0124657Y0130356D01*
X0125611Y0130356D01*
X0126494Y0130721D01*
X0127169Y0131396D01*
X0127534Y0132279D01*
X0127534Y0133233D01*
X0127169Y0134115D01*
X0126494Y0134791D01*
X0125611Y0135156D01*
X0124657Y0135156D01*
X0123775Y0134791D01*
X0123099Y0134115D01*
X0122734Y0133233D01*
X0122734Y0132279D01*
X0123099Y0131396D01*
X0123775Y0130721D01*
X0123092Y0131413D02*
X0080883Y0131413D01*
X0081034Y0132212D02*
X0122762Y0132212D01*
X0122734Y0133010D02*
X0080919Y0133010D01*
X0080475Y0133809D02*
X0122972Y0133809D01*
X0123591Y0134607D02*
X0079229Y0134607D01*
X0078039Y0134607D02*
X0024603Y0134607D01*
X0024603Y0133809D02*
X0076793Y0133809D01*
X0076349Y0133010D02*
X0024603Y0133010D01*
X0024603Y0132212D02*
X0076234Y0132212D01*
X0076385Y0131413D02*
X0024603Y0131413D01*
X0024603Y0130615D02*
X0076881Y0130615D01*
X0052087Y0109055D02*
X0197831Y0109055D01*
X0197831Y0109853D02*
X0050916Y0109853D01*
X0049470Y0109853D02*
X0024603Y0109853D01*
X0024603Y0109055D02*
X0048299Y0109055D01*
X0047886Y0108256D02*
X0024603Y0108256D01*
X0024603Y0107458D02*
X0047793Y0107458D01*
X0047966Y0106659D02*
X0024603Y0106659D01*
X0024603Y0105861D02*
X0048493Y0105861D01*
X0024603Y0110652D02*
X0197831Y0110652D01*
X0197831Y0111450D02*
X0024603Y0111450D01*
X0024603Y0112249D02*
X0150104Y0112249D01*
X0150116Y0112244D02*
X0151552Y0112244D01*
X0152880Y0112794D01*
X0153896Y0113810D01*
X0154446Y0115137D01*
X0154446Y0116574D01*
X0153896Y0117902D01*
X0152880Y0118918D01*
X0151552Y0119468D01*
X0150116Y0119468D01*
X0148788Y0118918D01*
X0147772Y0117902D01*
X0147222Y0116574D01*
X0147222Y0115137D01*
X0147772Y0113810D01*
X0148788Y0112794D01*
X0150116Y0112244D01*
X0151564Y0112249D02*
X0160104Y0112249D01*
X0160116Y0112244D02*
X0161552Y0112244D01*
X0162880Y0112794D01*
X0163896Y0113810D01*
X0164446Y0115137D01*
X0164446Y0116574D01*
X0163896Y0117902D01*
X0162880Y0118918D01*
X0161552Y0119468D01*
X0160116Y0119468D01*
X0158788Y0118918D01*
X0157772Y0117902D01*
X0157222Y0116574D01*
X0157222Y0115137D01*
X0157772Y0113810D01*
X0158788Y0112794D01*
X0160116Y0112244D01*
X0161564Y0112249D02*
X0170104Y0112249D01*
X0170116Y0112244D02*
X0171552Y0112244D01*
X0172880Y0112794D01*
X0173896Y0113810D01*
X0174446Y0115137D01*
X0174446Y0116574D01*
X0173896Y0117902D01*
X0172880Y0118918D01*
X0171552Y0119468D01*
X0170116Y0119468D01*
X0168788Y0118918D01*
X0167772Y0117902D01*
X0167222Y0116574D01*
X0167222Y0115137D01*
X0167772Y0113810D01*
X0168788Y0112794D01*
X0170116Y0112244D01*
X0171564Y0112249D02*
X0178293Y0112249D01*
X0178522Y0112083D02*
X0177960Y0112491D01*
X0177469Y0112982D01*
X0177061Y0113544D01*
X0176745Y0114162D01*
X0176531Y0114823D01*
X0176431Y0115456D01*
X0180434Y0115456D01*
X0180434Y0116256D01*
X0180434Y0120259D01*
X0179801Y0120159D01*
X0179140Y0119944D01*
X0178522Y0119629D01*
X0177960Y0119221D01*
X0177469Y0118730D01*
X0177061Y0118168D01*
X0176745Y0117549D01*
X0176531Y0116889D01*
X0176431Y0116256D01*
X0180434Y0116256D01*
X0181234Y0116256D01*
X0181234Y0120259D01*
X0181867Y0120159D01*
X0182528Y0119944D01*
X0183146Y0119629D01*
X0183708Y0119221D01*
X0184199Y0118730D01*
X0184607Y0118168D01*
X0184923Y0117549D01*
X0185137Y0116889D01*
X0185237Y0116256D01*
X0181234Y0116256D01*
X0181234Y0115456D01*
X0185237Y0115456D01*
X0185137Y0114823D01*
X0184923Y0114162D01*
X0184607Y0113544D01*
X0184199Y0112982D01*
X0183708Y0112491D01*
X0183146Y0112083D01*
X0182528Y0111767D01*
X0181867Y0111553D01*
X0181234Y0111452D01*
X0181234Y0115456D01*
X0180434Y0115456D01*
X0180434Y0111452D01*
X0179801Y0111553D01*
X0179140Y0111767D01*
X0178522Y0112083D01*
X0177421Y0113047D02*
X0173133Y0113047D01*
X0173911Y0113846D02*
X0176907Y0113846D01*
X0176589Y0114645D02*
X0174242Y0114645D01*
X0174446Y0115443D02*
X0176433Y0115443D01*
X0176580Y0117040D02*
X0174253Y0117040D01*
X0174446Y0116242D02*
X0180434Y0116242D01*
X0180434Y0117040D02*
X0181234Y0117040D01*
X0181234Y0116242D02*
X0187222Y0116242D01*
X0187222Y0116574D02*
X0187222Y0115137D01*
X0187772Y0113810D01*
X0188788Y0112794D01*
X0190116Y0112244D01*
X0191552Y0112244D01*
X0192880Y0112794D01*
X0193896Y0113810D01*
X0194446Y0115137D01*
X0194446Y0116574D01*
X0193896Y0117902D01*
X0192880Y0118918D01*
X0191552Y0119468D01*
X0190116Y0119468D01*
X0188788Y0118918D01*
X0187772Y0117902D01*
X0187222Y0116574D01*
X0187415Y0117040D02*
X0185088Y0117040D01*
X0184775Y0117839D02*
X0187746Y0117839D01*
X0188507Y0118637D02*
X0184267Y0118637D01*
X0183413Y0119436D02*
X0190038Y0119436D01*
X0191630Y0119436D02*
X0197831Y0119436D01*
X0197831Y0120234D02*
X0181393Y0120234D01*
X0181234Y0120234D02*
X0180434Y0120234D01*
X0180275Y0120234D02*
X0024603Y0120234D01*
X0024603Y0119436D02*
X0150038Y0119436D01*
X0151630Y0119436D02*
X0160038Y0119436D01*
X0161630Y0119436D02*
X0170038Y0119436D01*
X0171630Y0119436D02*
X0178255Y0119436D01*
X0177401Y0118637D02*
X0173161Y0118637D01*
X0173922Y0117839D02*
X0176893Y0117839D01*
X0180434Y0117839D02*
X0181234Y0117839D01*
X0181234Y0118637D02*
X0180434Y0118637D01*
X0180434Y0119436D02*
X0181234Y0119436D01*
X0181234Y0115443D02*
X0180434Y0115443D01*
X0180434Y0114645D02*
X0181234Y0114645D01*
X0181234Y0113846D02*
X0180434Y0113846D01*
X0180434Y0113047D02*
X0181234Y0113047D01*
X0181234Y0112249D02*
X0180434Y0112249D01*
X0183375Y0112249D02*
X0190104Y0112249D01*
X0191564Y0112249D02*
X0197831Y0112249D01*
X0197831Y0113047D02*
X0193133Y0113047D01*
X0193911Y0113846D02*
X0197831Y0113846D01*
X0197831Y0114645D02*
X0194242Y0114645D01*
X0194446Y0115443D02*
X0197831Y0115443D01*
X0197831Y0116242D02*
X0194446Y0116242D01*
X0194253Y0117040D02*
X0197831Y0117040D01*
X0197831Y0117839D02*
X0193922Y0117839D01*
X0193161Y0118637D02*
X0197831Y0118637D01*
X0197831Y0121033D02*
X0024603Y0121033D01*
X0024603Y0121831D02*
X0197831Y0121831D01*
X0197831Y0122630D02*
X0024603Y0122630D01*
X0024603Y0123428D02*
X0197831Y0123428D01*
X0197831Y0124227D02*
X0024603Y0124227D01*
X0024603Y0125025D02*
X0197831Y0125025D01*
X0197831Y0125824D02*
X0024603Y0125824D01*
X0024603Y0126622D02*
X0197831Y0126622D01*
X0197831Y0127421D02*
X0024603Y0127421D01*
X0024603Y0128219D02*
X0197831Y0128219D01*
X0197831Y0129018D02*
X0024603Y0129018D01*
X0024603Y0129816D02*
X0197831Y0129816D01*
X0197831Y0130615D02*
X0126236Y0130615D01*
X0127176Y0131413D02*
X0197831Y0131413D01*
X0197831Y0132212D02*
X0127506Y0132212D01*
X0127534Y0133010D02*
X0197831Y0133010D01*
X0197831Y0133809D02*
X0127296Y0133809D01*
X0126677Y0134607D02*
X0197831Y0134607D01*
X0197831Y0135406D02*
X0024603Y0135406D01*
X0024603Y0136204D02*
X0197831Y0136204D01*
X0197831Y0137003D02*
X0024603Y0137003D01*
X0024603Y0118637D02*
X0148507Y0118637D01*
X0147746Y0117839D02*
X0024603Y0117839D01*
X0024603Y0117040D02*
X0147415Y0117040D01*
X0147222Y0116242D02*
X0024603Y0116242D01*
X0024603Y0115443D02*
X0147222Y0115443D01*
X0147426Y0114645D02*
X0024603Y0114645D01*
X0024603Y0113846D02*
X0147757Y0113846D01*
X0148535Y0113047D02*
X0024603Y0113047D01*
X0024603Y0100271D02*
X0197831Y0100271D01*
X0188535Y0113047D02*
X0184247Y0113047D01*
X0184761Y0113846D02*
X0187757Y0113846D01*
X0187426Y0114645D02*
X0185079Y0114645D01*
X0185235Y0115443D02*
X0187222Y0115443D01*
X0168535Y0113047D02*
X0163133Y0113047D01*
X0163911Y0113846D02*
X0167757Y0113846D01*
X0167426Y0114645D02*
X0164242Y0114645D01*
X0164446Y0115443D02*
X0167222Y0115443D01*
X0167222Y0116242D02*
X0164446Y0116242D01*
X0164253Y0117040D02*
X0167415Y0117040D01*
X0167746Y0117839D02*
X0163922Y0117839D01*
X0163161Y0118637D02*
X0168507Y0118637D01*
X0158507Y0118637D02*
X0153161Y0118637D01*
X0153922Y0117839D02*
X0157746Y0117839D01*
X0157415Y0117040D02*
X0154253Y0117040D01*
X0154446Y0116242D02*
X0157222Y0116242D01*
X0157222Y0115443D02*
X0154446Y0115443D01*
X0154242Y0114645D02*
X0157426Y0114645D01*
X0157757Y0113846D02*
X0153911Y0113846D01*
X0153133Y0113047D02*
X0158535Y0113047D01*
D14*
X0125134Y0132756D03*
X0087134Y0132256D03*
X0078634Y0132256D03*
X0068634Y0122256D03*
X0055134Y0132756D03*
X0038382Y0119366D03*
X0030508Y0107555D03*
X0042134Y0101256D03*
X0049634Y0101256D03*
X0055834Y0106356D03*
X0050193Y0107555D03*
X0068134Y0109756D03*
X0080634Y0109756D03*
X0096134Y0103156D03*
X0081634Y0097256D03*
X0069134Y0097256D03*
X0058634Y0086256D03*
X0071634Y0083756D03*
X0078434Y0082956D03*
X0092234Y0075056D03*
X0100234Y0075356D03*
X0078234Y0064956D03*
X0063134Y0075756D03*
X0046256Y0075622D03*
X0046256Y0063311D03*
X0055134Y0059756D03*
X0046256Y0051000D03*
X0111434Y0096056D03*
D15*
X0147434Y0076656D03*
X0147434Y0053256D03*
X0189034Y0053256D03*
X0189034Y0076656D03*
X0189034Y0009056D03*
X0098034Y0009056D03*
M02*
